<?xml version="1.0" encoding="utf-8"?>
<!-- Generator: Adobe Illustrator 16.0.0, SVG Export Plug-In . SVG Version: 6.00 Build 0)  -->
<!DOCTYPE svg PUBLIC "-//W3C//DTD SVG 1.1//EN" "http://www.w3.org/Graphics/SVG/1.1/DTD/svg11.dtd">
<svg version="1.1" id="Layer_1" xmlns="http://www.w3.org/2000/svg" xmlns:xlink="http://www.w3.org/1999/xlink" x="0px" y="0px"
	 width="64px" height="64px" viewBox="0 0 64 64" enable-background="new 0 0 64 64" xml:space="preserve">
<g id="Rectangle_22_4_">
	<g>
		<polygon fill="#EDF2F8" points="36,15 36,1 4,1 4,63 50,63 50,15 		"/>
	</g>
</g>
<g id="Rectangle_23_3_">
	<g>
		<polygon fill="#FFFFFF" points="36,1 36,15 50,15 		"/>
	</g>
</g>
<g id="icon_12_">
	<g>
		<path fill="#8592A5" d="M50.994,14.989c-0.009-0.237-0.098-0.474-0.279-0.655L36.666,0.285c-0.179-0.179-0.411-0.267-0.646-0.277
			C36.014,0.006,36,0,36,0H5C3.896,0,3,0.896,3,2v60c0,1.104,0.896,2,2,2h44c1.104,0,2-0.896,2-2V15
			C51,15,50.995,14.991,50.994,14.989z M37,3.381L47.619,14C43.477,14,37,14,37,14S37,7.524,37,3.381z M49,62H5V2h30v14h14V62z"/>
	</g>
</g>
<g id="Ellipse_8_1_">
	<g>
		<circle fill="#FFFFFF" cx="50" cy="36" r="11"/>
	</g>
</g>
<g id="Rounded_Rectangle_4_1_">
	<g>
		<path fill-rule="evenodd" clip-rule="evenodd" fill="#8592A5" d="M50,24c-6.627,0-12,5.372-12,12c0,6.627,5.373,12,12,12
			s12-5.373,12-12C62,29.372,56.627,24,50,24z M50,46c-5.522,0-10-4.478-10-10s4.478-10,10-10s10,4.478,10,10S55.522,46,50,46z
			 M54,35h-3v-3c0-0.553-0.447-1-1-1s-1,0.447-1,1v3h-3c-0.553,0-1,0.447-1,1s0.447,1,1,1h3v3c0,0.552,0.447,1,1,1s1-0.448,1-1v-3h3
			c0.553,0,1-0.447,1-1S54.553,35,54,35z"/>
	</g>
</g>
</svg>
