<?xml version="1.0" encoding="utf-8"?>
<!-- Generator: Adobe Illustrator 16.0.0, SVG Export Plug-In . SVG Version: 6.00 Build 0)  -->
<!DOCTYPE svg PUBLIC "-//W3C//DTD SVG 1.1//EN" "http://www.w3.org/Graphics/SVG/1.1/DTD/svg11.dtd">
<svg version="1.1" id="Layer_1" xmlns="http://www.w3.org/2000/svg" xmlns:xlink="http://www.w3.org/1999/xlink" x="0px" y="0px"
	 width="64px" height="64px" viewBox="0 0 64 64" enable-background="new 0 0 64 64" xml:space="preserve">
<g id="Rectangle_37">
	<g>
		<rect x="7" y="1" fill="#EDF2F8" width="46" height="62"/>
	</g>
</g>
<g id="Rectangle_36">
	<g>
		<rect x="23" y="34" fill="#FFFFFF" width="14" height="20"/>
	</g>
</g>
<g id="Rounded_Rectangle_7_4_">
	<g>
		<path fill="#8592A5" d="M42,33H18v22h24V33z M22,53h-2v-2h2V53z M22,49h-2v-2h2V49z M22,45h-2v-2h2V45z M22,41h-2v-2h2V41z M22,37
			h-2v-2h2V37z M36,53H24v-8h12V53z M36,43H24v-8h12V43z M40,53h-2v-2h2V53z M40,49h-2v-2h2V49z M40,45h-2v-2h2V45z M40,41h-2v-2h2
			V41z M40,37h-2v-2h2V37z M56,8h-2V2c0-1.104-0.896-2-2-2H8C6.896,0,6,0.896,6,2v60c0,1.104,0.896,2,2,2h44c1.104,0,2-0.896,2-2V26
			h2c1.104,0,2-0.896,2-2V10C58,8.896,57.104,8,56,8z M52,8H28c-1.104,0-2,0.896-2,2v14c0,1.104,0.896,2,2,2h24v36H8V2h44V8z"/>
	</g>
</g>
<g enable-background="new    ">
	<path fill="#FFFFFF" d="M40.077,20.5h-1.31c-0.146,0-0.268-0.034-0.363-0.103c-0.095-0.068-0.16-0.155-0.197-0.263l-0.43-1.27
		h-2.77l-0.431,1.27c-0.033,0.094-0.099,0.178-0.194,0.253c-0.098,0.075-0.215,0.112-0.355,0.112h-1.32l2.82-7.285h1.73L40.077,20.5
		z M35.397,17.715h1.989l-0.67-1.995c-0.043-0.126-0.094-0.275-0.152-0.447s-0.115-0.357-0.172-0.558
		c-0.054,0.203-0.109,0.392-0.166,0.565c-0.057,0.173-0.109,0.323-0.159,0.45L35.397,17.715z"/>
	<path fill="#FFFFFF" d="M39.067,13.215h1.36c0.146,0,0.266,0.033,0.359,0.101c0.094,0.066,0.16,0.154,0.2,0.265l1.41,3.9
		c0.063,0.17,0.128,0.354,0.192,0.555s0.126,0.41,0.183,0.63c0.046-0.22,0.101-0.43,0.163-0.63c0.061-0.2,0.122-0.385,0.182-0.555
		l1.4-3.9c0.033-0.094,0.098-0.178,0.195-0.253c0.096-0.074,0.215-0.112,0.354-0.112h1.37l-2.92,7.285h-1.53L39.067,13.215z"/>
	<path fill="#FFFFFF" d="M48.888,20.5h-1.7v-7.285h1.7V20.5z"/>
</g>
</svg>
