<?xml version="1.0" encoding="utf-8"?>
<!-- Generator: Adobe Illustrator 16.0.0, SVG Export Plug-In . SVG Version: 6.00 Build 0)  -->
<!DOCTYPE svg PUBLIC "-//W3C//DTD SVG 1.1//EN" "http://www.w3.org/Graphics/SVG/1.1/DTD/svg11.dtd">
<svg version="1.1" id="Layer_1" xmlns="http://www.w3.org/2000/svg" xmlns:xlink="http://www.w3.org/1999/xlink" x="0px" y="0px"
	 width="64px" height="64px" viewBox="0 0 64 64" enable-background="new 0 0 64 64" xml:space="preserve">
<g id="Rectangle_44">
	<g>
		<rect x="7" y="1" fill="#EDF2F8" width="46" height="62"/>
	</g>
</g>
<g id="Rounded_Rectangle_7">
	<g>
		<path fill="#8592A5" d="M42,51h2v-3h3v-2h-3v-3h-2v3h-3v2h3V51z M21.299,53.027c1.715,0,3.464-0.826,4.693-2.111l-1.213-1.432
			c-0.918,0.937-2.164,1.522-3.377,1.522c-2.424,0-4.329-2.001-4.329-4.534s1.905-4.517,4.329-4.517c1.23,0,2.494,0.624,3.377,1.634
			l1.195-1.578c-1.178-1.229-2.893-1.982-4.606-1.982c-3.585,0-6.372,2.81-6.372,6.463C14.996,50.182,17.749,53.027,21.299,53.027z
			 M32,51h2v-3h3v-2h-3v-3h-2v3h-3v2h3V51z M56,8h-2V2c0-1.104-0.896-2-2-2H8C6.896,0,6,0.896,6,2v60c0,1.104,0.896,2,2,2h44
			c1.104,0,2-0.896,2-2V26h2c1.104,0,2-0.896,2-2V10C58,8.896,57.104,8,56,8z M52,8H28c-1.104,0-2,0.896-2,2v14c0,1.104,0.896,2,2,2
			h24v36H8V2h44V8z"/>
	</g>
</g>
<g enable-background="new    ">
	<path fill="#FFFFFF" d="M38.077,18.782c0.04,0,0.08,0.007,0.12,0.022c0.039,0.015,0.078,0.041,0.115,0.077l0.67,0.705
		c-0.294,0.384-0.661,0.673-1.104,0.867c-0.441,0.195-0.963,0.293-1.566,0.293c-0.554,0-1.05-0.094-1.488-0.282
		c-0.438-0.188-0.81-0.448-1.115-0.78c-0.305-0.332-0.539-0.725-0.702-1.18s-0.245-0.949-0.245-1.482
		c0-0.544,0.094-1.043,0.28-1.498s0.448-0.848,0.782-1.178c0.336-0.33,0.736-0.586,1.203-0.77s0.981-0.275,1.545-0.275
		c0.273,0,0.531,0.024,0.772,0.072c0.241,0.049,0.468,0.115,0.677,0.2c0.211,0.085,0.404,0.187,0.58,0.306
		c0.178,0.118,0.334,0.249,0.471,0.393l-0.57,0.765c-0.037,0.047-0.08,0.089-0.13,0.127c-0.05,0.039-0.12,0.058-0.21,0.058
		c-0.061,0-0.117-0.013-0.17-0.04c-0.054-0.026-0.11-0.059-0.17-0.097c-0.061-0.039-0.126-0.08-0.197-0.125
		c-0.072-0.046-0.157-0.087-0.256-0.125c-0.098-0.039-0.213-0.071-0.345-0.098c-0.132-0.027-0.286-0.04-0.462-0.04
		c-0.307,0-0.588,0.054-0.84,0.162c-0.254,0.108-0.472,0.264-0.653,0.465c-0.182,0.202-0.323,0.446-0.425,0.732
		c-0.102,0.287-0.152,0.608-0.152,0.966c0,0.373,0.051,0.704,0.152,0.994s0.24,0.534,0.415,0.732
		c0.175,0.199,0.379,0.35,0.612,0.453s0.483,0.155,0.75,0.155c0.153,0,0.293-0.008,0.42-0.022c0.127-0.016,0.244-0.041,0.353-0.078
		c0.108-0.036,0.212-0.084,0.31-0.143c0.1-0.058,0.198-0.131,0.299-0.217c0.039-0.034,0.082-0.062,0.129-0.083
		S38.027,18.782,38.077,18.782z"/>
	<path fill="#FFFFFF" d="M42.672,14.772v1.979h1.85v1.11h-1.85v1.989h-1.26v-1.989h-1.84v-1.11h1.84v-1.979H42.672z"/>
	<path fill="#FFFFFF" d="M48.472,14.772v1.979h1.851v1.11h-1.851v1.989h-1.261v-1.989h-1.84v-1.11h1.84v-1.979H48.472z"/>
</g>
</svg>
