<?xml version="1.0" encoding="utf-8"?>
<!-- Generator: Adobe Illustrator 16.0.0, SVG Export Plug-In . SVG Version: 6.00 Build 0)  -->
<!DOCTYPE svg PUBLIC "-//W3C//DTD SVG 1.1//EN" "http://www.w3.org/Graphics/SVG/1.1/DTD/svg11.dtd">
<svg version="1.1" id="Layer_1" xmlns="http://www.w3.org/2000/svg" xmlns:xlink="http://www.w3.org/1999/xlink" x="0px" y="0px"
	 width="64px" height="64px" viewBox="0 0 64 64" enable-background="new 0 0 64 64" xml:space="preserve">
<g id="Rectangle_13">
	<g>
		<polygon fill="#EDF2F8" points="41,15 41,1 9,1 9,63 55,63 55,15 		"/>
	</g>
</g>
<g id="Rectangle_16">
	<g>
		<polygon fill="#FFFFFF" points="41,1 41,15 55,15 		"/>
	</g>
</g>
<g id="icon_18_">
	<g>
		<path fill-rule="evenodd" clip-rule="evenodd" fill="#8592A5" d="M55.994,14.989c-0.009-0.237-0.098-0.474-0.279-0.655
			L41.666,0.285c-0.179-0.179-0.411-0.267-0.646-0.277C41.014,0.006,41,0,41,0H10C8.896,0,8,0.896,8,2v60c0,1.104,0.896,2,2,2h44
			c1.104,0,2-0.896,2-2V15C56,15,55.995,14.991,55.994,14.989z M42,3.381L52.619,14C48.477,14,42,14,42,14S42,7.524,42,3.381z
			 M54,62H10V2h30v14h14V62z M38.201,29.289L27.984,39.507l-4.217-4.218c-0.408-0.408-1.07-0.408-1.479,0s-0.408,1.07,0,1.479
			l4.911,4.91c0.216,0.216,0.501,0.31,0.784,0.297c0.283,0.013,0.568-0.081,0.784-0.297l10.911-10.91
			c0.408-0.408,0.408-1.07,0-1.479S38.609,28.881,38.201,29.289z"/>
	</g>
</g>
</svg>
