<?xml version="1.0" encoding="utf-8"?>
<!-- Generator: Adobe Illustrator 16.0.0, SVG Export Plug-In . SVG Version: 6.00 Build 0)  -->
<!DOCTYPE svg PUBLIC "-//W3C//DTD SVG 1.1//EN" "http://www.w3.org/Graphics/SVG/1.1/DTD/svg11.dtd">
<svg version="1.1" id="Layer_1" xmlns="http://www.w3.org/2000/svg" xmlns:xlink="http://www.w3.org/1999/xlink" x="0px" y="0px"
	 width="64px" height="64px" viewBox="0 0 64 64" enable-background="new 0 0 64 64" xml:space="preserve">
<g id="Rectangle_25">
	<g>
		<polygon fill="#EDF2F8" points="41,15 41,1 9,1 9,63 55,63 55,15 		"/>
	</g>
</g>
<g id="Ellipse_5">
	<g>
		<path fill-rule="evenodd" clip-rule="evenodd" fill="#FFFFFF" d="M41,1v14h14L41,1z M36,23c-5.084,0-9.35,3.453-10.611,8.139
			C24.94,31.049,24.476,31,24,31c-3.866,0-7,3.134-7,7s3.134,7,7,7h12c6.075,0,11-4.925,11-11S42.075,23,36,23z"/>
	</g>
</g>
<g id="icon_6_">
	<g>
		<path fill-rule="evenodd" clip-rule="evenodd" fill="#8592A5" d="M24.685,30.034C24.459,30.016,24.231,30,24,30
			c-4.418,0-8,3.582-8,8s3.582,8,8,8h12c6.627,0,12-5.373,12-12s-5.373-12-12-12C30.765,22,26.324,25.358,24.685,30.034z M46,34
			c0,5.794-5.646,10-10,10H24c-2.817,0-6-2.845-6-6c0-2.845,2.266-6,5-6c0.137,0,0.866-0.012,1,0h1.125
			c0.438,0,0.969-0.066,1.321-1.089c0,0,2.317-6.911,9.554-6.911C41.372,24,46,28.456,46,34z M55.994,14.989
			c-0.009-0.237-0.098-0.474-0.279-0.655L41.666,0.285c-0.179-0.179-0.411-0.267-0.646-0.277C41.014,0.006,41,0,41,0H10
			C8.896,0,8,0.896,8,2v60c0,1.104,0.896,2,2,2h44c1.104,0,2-0.896,2-2V15C56,15,55.995,14.991,55.994,14.989z M42,3.381L52.619,14
			C48.477,14,42,14,42,14S42,7.524,42,3.381z M54,62H10V2h30v14h14V62z"/>
	</g>
</g>
</svg>
