<?xml version="1.0" encoding="utf-8"?>
<!-- Generator: Adobe Illustrator 16.0.0, SVG Export Plug-In . SVG Version: 6.00 Build 0)  -->
<!DOCTYPE svg PUBLIC "-//W3C//DTD SVG 1.1//EN" "http://www.w3.org/Graphics/SVG/1.1/DTD/svg11.dtd">
<svg version="1.1" id="Layer_1" xmlns="http://www.w3.org/2000/svg" xmlns:xlink="http://www.w3.org/1999/xlink" x="0px" y="0px"
	 width="64px" height="64px" viewBox="0 0 64 64" enable-background="new 0 0 64 64" xml:space="preserve">
<g id="Rectangle_32">
	<g>
		<rect x="7" y="1" fill="#EDF2F8" width="46" height="62"/>
	</g>
</g>
<g id="Rounded_Rectangle_7_7_">
	<g>
		<path fill="#8592A5" d="M23,46.46V53c0,0.553,0.447,1,1,1h2c0.553,0,1-0.447,1-1s-0.447-1-1-1h-1v-6
			c0-0.146-0.035-0.283-0.092-0.408c-0.05-0.138-0.123-0.268-0.233-0.377l-1.21-1.21l1.239-1.239
			c0.214-0.214,0.308-0.496,0.296-0.776V36h1c0.553,0,1-0.448,1-1c0-0.553-0.447-1-1-1h-2c-0.553,0-1,0.447-1,1v6.529l-1.704,1.705
			c-0.21,0.209-0.307,0.486-0.299,0.763c-0.008,0.272,0.089,0.549,0.297,0.757L23,46.46z M35.092,45.592
			C35.035,45.717,35,45.854,35,46v6h-1c-0.553,0-1,0.447-1,1s0.447,1,1,1h2c0.553,0,1-0.447,1-1v-6.54l1.706-1.706
			c0.208-0.208,0.304-0.482,0.297-0.757c0.009-0.274-0.089-0.554-0.299-0.763L37,41.529V35c0-0.553-0.447-1-1-1h-2
			c-0.553,0-1,0.447-1,1c0,0.552,0.447,1,1,1h1v5.988c-0.012,0.279,0.082,0.563,0.296,0.777l1.239,1.238l-1.21,1.21
			C35.215,45.324,35.143,45.454,35.092,45.592z M56,8h-2V2c0-1.104-0.896-2-2-2H8C6.896,0,6,0.896,6,2v60c0,1.104,0.896,2,2,2h44
			c1.104,0,2-0.896,2-2V26h2c1.104,0,2-0.896,2-2V10C58,8.896,57.104,8,56,8z M52,8H28c-1.104,0-2,0.896-2,2v14c0,1.104,0.896,2,2,2
			h24v36H8V2h44V8z"/>
	</g>
</g>
<g enable-background="new    ">
	<path fill="#FFFFFF" d="M38.457,18.615c0.04,0,0.08,0.007,0.12,0.022c0.04,0.015,0.078,0.041,0.114,0.077l0.67,0.705
		c-0.293,0.384-0.66,0.673-1.102,0.867c-0.441,0.195-0.965,0.293-1.568,0.293c-0.553,0-1.049-0.094-1.486-0.282
		c-0.439-0.188-0.811-0.448-1.115-0.78c-0.306-0.332-0.539-0.725-0.703-1.18c-0.163-0.455-0.244-0.949-0.244-1.482
		c0-0.544,0.093-1.043,0.279-1.498s0.447-0.848,0.783-1.178c0.334-0.33,0.735-0.586,1.201-0.77c0.467-0.184,0.982-0.275,1.546-0.275
		c0.272,0,0.53,0.024,0.772,0.072c0.241,0.049,0.467,0.115,0.678,0.2c0.209,0.085,0.402,0.187,0.58,0.306
		c0.176,0.118,0.333,0.249,0.47,0.393l-0.57,0.765c-0.036,0.047-0.08,0.089-0.13,0.127c-0.05,0.039-0.12,0.058-0.21,0.058
		c-0.06,0-0.116-0.013-0.17-0.04c-0.054-0.026-0.11-0.059-0.17-0.097c-0.06-0.039-0.126-0.08-0.198-0.125
		c-0.071-0.046-0.156-0.087-0.254-0.125c-0.1-0.039-0.214-0.071-0.346-0.098c-0.132-0.027-0.285-0.04-0.463-0.04
		c-0.307,0-0.586,0.054-0.84,0.162c-0.253,0.108-0.471,0.264-0.652,0.465c-0.182,0.202-0.323,0.446-0.425,0.732
		c-0.102,0.287-0.152,0.608-0.152,0.966c0,0.373,0.051,0.704,0.152,0.994s0.24,0.534,0.415,0.732
		c0.175,0.199,0.379,0.35,0.612,0.453s0.483,0.155,0.75,0.155c0.153,0,0.294-0.008,0.42-0.022c0.127-0.016,0.244-0.041,0.353-0.078
		c0.108-0.036,0.212-0.084,0.311-0.143c0.098-0.058,0.197-0.131,0.297-0.217c0.04-0.034,0.084-0.062,0.131-0.083
		C38.358,18.626,38.406,18.615,38.457,18.615z"/>
	<path fill="#FFFFFF" d="M44.191,14.695c-0.05,0.08-0.102,0.14-0.157,0.18s-0.126,0.06-0.212,0.06c-0.077,0-0.16-0.023-0.248-0.072
		c-0.088-0.048-0.188-0.103-0.3-0.162c-0.112-0.061-0.239-0.114-0.383-0.163c-0.144-0.048-0.307-0.072-0.489-0.072
		c-0.317,0-0.553,0.067-0.708,0.203c-0.155,0.135-0.232,0.317-0.232,0.547c0,0.146,0.046,0.269,0.14,0.365s0.216,0.18,0.367,0.25
		c0.152,0.07,0.326,0.134,0.521,0.192s0.394,0.123,0.598,0.195c0.203,0.071,0.402,0.155,0.597,0.252
		c0.195,0.097,0.369,0.221,0.521,0.37c0.151,0.15,0.274,0.333,0.368,0.548c0.093,0.215,0.14,0.474,0.14,0.777
		c0,0.337-0.059,0.651-0.175,0.945c-0.117,0.293-0.286,0.549-0.508,0.768c-0.222,0.218-0.495,0.39-0.82,0.515
		c-0.324,0.125-0.693,0.188-1.107,0.188c-0.227,0-0.457-0.023-0.692-0.07s-0.462-0.112-0.683-0.197
		c-0.22-0.085-0.427-0.186-0.619-0.303c-0.193-0.116-0.362-0.246-0.506-0.39l0.5-0.79c0.037-0.061,0.088-0.108,0.155-0.146
		c0.066-0.036,0.138-0.055,0.215-0.055c0.101,0,0.2,0.032,0.303,0.095c0.102,0.063,0.216,0.134,0.345,0.21
		c0.129,0.077,0.275,0.147,0.442,0.21c0.167,0.063,0.363,0.096,0.591,0.096c0.307,0,0.545-0.067,0.715-0.203
		c0.17-0.135,0.254-0.349,0.254-0.643c0-0.17-0.046-0.308-0.139-0.414c-0.094-0.107-0.217-0.195-0.368-0.266
		s-0.324-0.132-0.518-0.185c-0.193-0.054-0.392-0.112-0.595-0.178s-0.402-0.146-0.596-0.24s-0.365-0.22-0.518-0.375
		c-0.151-0.155-0.273-0.348-0.367-0.58c-0.094-0.231-0.14-0.518-0.14-0.857c0-0.273,0.055-0.54,0.165-0.8
		c0.109-0.26,0.271-0.491,0.484-0.695c0.214-0.203,0.476-0.365,0.785-0.487c0.311-0.121,0.666-0.183,1.065-0.183
		c0.224,0,0.44,0.018,0.652,0.053s0.413,0.087,0.603,0.155s0.367,0.149,0.533,0.245c0.164,0.095,0.313,0.202,0.441,0.322
		L44.191,14.695z"/>
	<path fill="#FFFFFF" d="M49.611,14.695c-0.05,0.08-0.102,0.14-0.157,0.18s-0.126,0.06-0.212,0.06c-0.077,0-0.16-0.023-0.248-0.072
		c-0.088-0.048-0.188-0.103-0.3-0.162c-0.112-0.061-0.239-0.114-0.383-0.163c-0.144-0.048-0.307-0.072-0.489-0.072
		c-0.317,0-0.553,0.067-0.708,0.203c-0.155,0.135-0.232,0.317-0.232,0.547c0,0.146,0.046,0.269,0.14,0.365s0.216,0.18,0.367,0.25
		c0.152,0.07,0.326,0.134,0.521,0.192s0.394,0.123,0.598,0.195c0.203,0.071,0.402,0.155,0.597,0.252
		c0.195,0.097,0.369,0.221,0.521,0.37c0.151,0.15,0.274,0.333,0.368,0.548c0.093,0.215,0.14,0.474,0.14,0.777
		c0,0.337-0.059,0.651-0.175,0.945c-0.117,0.293-0.286,0.549-0.508,0.768c-0.222,0.218-0.495,0.39-0.82,0.515
		c-0.324,0.125-0.693,0.188-1.107,0.188c-0.227,0-0.457-0.023-0.692-0.07s-0.462-0.112-0.683-0.197
		c-0.22-0.085-0.427-0.186-0.619-0.303c-0.193-0.116-0.362-0.246-0.506-0.39l0.5-0.79c0.037-0.061,0.088-0.108,0.155-0.146
		c0.066-0.036,0.138-0.055,0.215-0.055c0.101,0,0.2,0.032,0.303,0.095c0.102,0.063,0.216,0.134,0.345,0.21
		c0.129,0.077,0.275,0.147,0.442,0.21c0.167,0.063,0.363,0.096,0.591,0.096c0.307,0,0.545-0.067,0.715-0.203
		c0.17-0.135,0.254-0.349,0.254-0.643c0-0.17-0.046-0.308-0.139-0.414c-0.094-0.107-0.217-0.195-0.368-0.266
		s-0.324-0.132-0.518-0.185c-0.193-0.054-0.392-0.112-0.595-0.178s-0.402-0.146-0.596-0.24s-0.365-0.22-0.518-0.375
		c-0.151-0.155-0.273-0.348-0.367-0.58c-0.094-0.231-0.14-0.518-0.14-0.857c0-0.273,0.055-0.54,0.165-0.8
		c0.109-0.26,0.271-0.491,0.484-0.695c0.214-0.203,0.476-0.365,0.785-0.487c0.311-0.121,0.666-0.183,1.065-0.183
		c0.224,0,0.44,0.018,0.652,0.053s0.413,0.087,0.603,0.155s0.367,0.149,0.533,0.245c0.164,0.095,0.313,0.202,0.441,0.322
		L49.611,14.695z"/>
</g>
</svg>
