<?xml version="1.0" encoding="utf-8"?>
<!-- Generator: Adobe Illustrator 16.0.0, SVG Export Plug-In . SVG Version: 6.00 Build 0)  -->
<!DOCTYPE svg PUBLIC "-//W3C//DTD SVG 1.1//EN" "http://www.w3.org/Graphics/SVG/1.1/DTD/svg11.dtd">
<svg version="1.1" id="Layer_1" xmlns="http://www.w3.org/2000/svg" xmlns:xlink="http://www.w3.org/1999/xlink" x="0px" y="0px"
	 width="64px" height="64px" viewBox="0 0 64 64" enable-background="new 0 0 64 64" xml:space="preserve">
<g id="Rectangle_29">
	<g>
		<rect x="7" y="1" fill="#EDF2F8" width="46" height="62"/>
	</g>
</g>
<g id="icon_4_">
	<g>
		<path fill="#8592A5" d="M44,34H16v2h28V34z M44,40H16v2h28V40z M44,46H16v2h28V46z M56,8h-2V2c0-1.104-0.896-2-2-2H8
			C6.896,0,6,0.896,6,2v60c0,1.104,0.896,2,2,2h44c1.104,0,2-0.896,2-2V26h2c1.104,0,2-0.896,2-2V10C58,8.896,57.104,8,56,8z M52,8
			H28c-1.104,0-2,0.896-2,2v14c0,1.104,0.896,2,2,2h24v36H8V2h44V8z M31,52H16v2h15V52z"/>
	</g>
</g>
<g enable-background="new    ">
	<path fill="#FFFFFF" d="M37.882,16.855c0,0.526-0.091,1.012-0.272,1.457s-0.438,0.83-0.768,1.155s-0.728,0.578-1.192,0.76
		S34.668,20.5,34.102,20.5h-2.83v-7.285h2.83c0.566,0,1.083,0.092,1.548,0.275s0.862,0.437,1.192,0.76s0.586,0.707,0.768,1.152
		S37.882,16.332,37.882,16.855z M36.152,16.855c0-0.36-0.047-0.686-0.141-0.976s-0.228-0.536-0.402-0.737
		c-0.175-0.202-0.389-0.356-0.643-0.465s-0.541-0.163-0.865-0.163h-1.13V19.2h1.13c0.324,0,0.611-0.055,0.865-0.163
		c0.254-0.107,0.468-0.263,0.643-0.465c0.175-0.201,0.309-0.447,0.402-0.737S36.152,17.219,36.152,16.855z"/>
	<path fill="#FFFFFF" d="M45.882,16.855c0,0.526-0.091,1.017-0.272,1.47s-0.438,0.848-0.768,1.183s-0.728,0.598-1.192,0.787
		c-0.466,0.19-0.981,0.285-1.548,0.285s-1.083-0.095-1.55-0.285c-0.467-0.189-0.866-0.452-1.197-0.787
		c-0.332-0.335-0.589-0.729-0.771-1.183s-0.271-0.943-0.271-1.47c0-0.527,0.09-1.018,0.271-1.471s0.438-0.847,0.771-1.18
		c0.331-0.333,0.73-0.595,1.197-0.785c0.467-0.189,0.983-0.285,1.55-0.285s1.082,0.096,1.548,0.288
		c0.465,0.191,0.862,0.454,1.192,0.787s0.586,0.727,0.768,1.18C45.791,15.844,45.882,16.332,45.882,16.855z M44.152,16.855
		c0-0.36-0.047-0.685-0.141-0.973c-0.094-0.289-0.228-0.533-0.402-0.732c-0.176-0.2-0.389-0.354-0.643-0.46
		c-0.254-0.107-0.541-0.16-0.865-0.16c-0.326,0-0.617,0.053-0.872,0.16c-0.255,0.106-0.47,0.26-0.646,0.46
		c-0.175,0.199-0.309,0.443-0.402,0.732c-0.094,0.288-0.14,0.612-0.14,0.973c0,0.363,0.046,0.688,0.14,0.977
		c0.094,0.289,0.228,0.533,0.402,0.733c0.176,0.199,0.391,0.353,0.646,0.457c0.255,0.105,0.546,0.157,0.872,0.157
		c0.324,0,0.611-0.052,0.865-0.157c0.254-0.104,0.467-0.258,0.643-0.457c0.175-0.2,0.309-0.444,0.402-0.733
		C44.105,17.544,44.152,17.219,44.152,16.855z"/>
	<path fill="#FFFFFF" d="M51.587,18.615c0.04,0,0.08,0.007,0.12,0.022c0.039,0.015,0.078,0.041,0.115,0.077l0.67,0.705
		c-0.294,0.384-0.661,0.673-1.104,0.867c-0.441,0.195-0.963,0.293-1.566,0.293c-0.554,0-1.05-0.094-1.488-0.282
		c-0.438-0.188-0.81-0.448-1.115-0.78c-0.305-0.332-0.539-0.725-0.702-1.18s-0.245-0.949-0.245-1.482
		c0-0.544,0.094-1.043,0.28-1.498S47,14.51,47.334,14.18c0.336-0.33,0.736-0.586,1.203-0.77s0.981-0.275,1.545-0.275
		c0.273,0,0.531,0.024,0.772,0.072c0.241,0.049,0.468,0.115,0.677,0.2c0.211,0.085,0.404,0.187,0.58,0.306
		c0.178,0.118,0.334,0.249,0.471,0.393l-0.57,0.765c-0.037,0.047-0.08,0.089-0.13,0.127c-0.05,0.039-0.12,0.058-0.21,0.058
		c-0.061,0-0.117-0.013-0.17-0.04c-0.054-0.026-0.11-0.059-0.17-0.097c-0.061-0.039-0.126-0.08-0.197-0.125
		c-0.072-0.046-0.157-0.087-0.256-0.125c-0.098-0.039-0.213-0.071-0.345-0.098c-0.132-0.027-0.286-0.04-0.462-0.04
		c-0.307,0-0.588,0.054-0.84,0.162c-0.254,0.108-0.472,0.264-0.653,0.465c-0.182,0.202-0.323,0.446-0.425,0.732
		c-0.102,0.287-0.152,0.608-0.152,0.966c0,0.373,0.051,0.704,0.152,0.994s0.24,0.534,0.415,0.732
		c0.175,0.199,0.379,0.35,0.612,0.453s0.483,0.155,0.75,0.155c0.153,0,0.293-0.008,0.42-0.022c0.127-0.016,0.244-0.041,0.353-0.078
		c0.108-0.036,0.212-0.084,0.31-0.143c0.1-0.058,0.198-0.131,0.299-0.217c0.039-0.034,0.082-0.062,0.129-0.083
		S51.537,18.615,51.587,18.615z"/>
</g>
</svg>
