<?xml version="1.0" encoding="utf-8"?>
<!-- Generator: Adobe Illustrator 16.0.0, SVG Export Plug-In . SVG Version: 6.00 Build 0)  -->
<!DOCTYPE svg PUBLIC "-//W3C//DTD SVG 1.1//EN" "http://www.w3.org/Graphics/SVG/1.1/DTD/svg11.dtd">
<svg version="1.1" id="Layer_1" xmlns="http://www.w3.org/2000/svg" xmlns:xlink="http://www.w3.org/1999/xlink" x="0px" y="0px"
	 width="64px" height="64px" viewBox="0 0 64 64" enable-background="new 0 0 64 64" xml:space="preserve">
<g id="Rectangle_14">
	<g>
		<polygon fill-rule="evenodd" clip-rule="evenodd" fill="#EDF2F8" points="56,2 20,2 20,8 14,8 14,14 8,14 8,62 44,62 44,56 50,56 
			50,50 56,50 		"/>
	</g>
</g>
<g id="icon_17_">
	<g>
		<path fill-rule="evenodd" clip-rule="evenodd" fill="#8592A5" d="M35,31H17v2h18V31z M35,37H17v2h18V37z M55,1H21
			c-1.104,0-2,0.896-2,2v4h-4c-1.104,0-2,0.896-2,2v4H9c-1.104,0-2,0.896-2,2v46c0,1.104,0.896,2,2,2h34c1.104,0,2-0.896,2-2v-4h4
			c1.104,0,2-0.896,2-2v-4h4c1.104,0,2-0.896,2-2V3C57,1.896,56.104,1,55,1z M43,61H9V15h34V61z M49,55h-4V15c0-1.104-0.896-2-2-2
			H15V9h34V55z M55,49h-4V9c0-1.104-0.896-2-2-2H21V3h34V49z M35,43H17v2h18V43z"/>
	</g>
</g>
</svg>
