<?xml version="1.0" encoding="utf-8"?>
<!-- Generator: Adobe Illustrator 16.0.0, SVG Export Plug-In . SVG Version: 6.00 Build 0)  -->
<!DOCTYPE svg PUBLIC "-//W3C//DTD SVG 1.1//EN" "http://www.w3.org/Graphics/SVG/1.1/DTD/svg11.dtd">
<svg version="1.1" id="Layer_1" xmlns="http://www.w3.org/2000/svg" xmlns:xlink="http://www.w3.org/1999/xlink" x="0px" y="0px"
	 width="64px" height="64px" viewBox="0 0 64 64" enable-background="new 0 0 64 64" xml:space="preserve">
<g id="Rectangle_42">
	<g>
		<rect x="7" y="1" fill="#EDF2F8" width="46" height="62"/>
	</g>
</g>
<g id="Ellipse_12">
	<g>
		<path fill="#C2CDDC" d="M30,36c-4.418,0-8,3.582-8,8s3.582,8,8,8s8-3.582,8-8S34.418,36,30,36z M30,48c-2.209,0-4-1.791-4-4
			s1.791-4,4-4s4,1.791,4,4S32.209,48,30,48z"/>
	</g>
</g>
<g id="Rounded_Rectangle_7_2_">
	<g>
		<path fill="#8592A5" d="M19,46h2.251c0.228,0.996,0.636,1.919,1.161,2.76l-1.604,1.604c-0.391,0.391-0.391,1.022,0,1.413
			l1.414,1.414c0.391,0.392,1.023,0.392,1.414,0l1.596-1.596c0.842,0.532,1.767,0.944,2.769,1.174V55c0,0.553,0.447,1,1,1h2
			c0.553,0,1-0.447,1-1v-2.23c1.002-0.229,1.927-0.641,2.769-1.172l1.597,1.596c0.391,0.391,1.022,0.391,1.413,0l1.414-1.414
			c0.392-0.391,0.392-1.023,0-1.414l-1.604-1.604c0.525-0.841,0.934-1.764,1.161-2.76H41c0.553,0,1-0.446,1-1v-2
			c0-0.553-0.447-1-1-1h-2.251c-0.228-0.996-0.636-1.919-1.161-2.76l1.604-1.604c0.392-0.391,0.392-1.022,0-1.414l-1.414-1.414
			c-0.391-0.391-1.022-0.391-1.414,0l-1.596,1.596c-0.842-0.531-1.767-0.943-2.769-1.172V33c0-0.553-0.447-1-1-1h-2
			c-0.553,0-1,0.447-1,1v2.23c-1.002,0.229-1.927,0.641-2.769,1.172l-1.596-1.596c-0.391-0.391-1.023-0.391-1.414,0l-1.414,1.414
			c-0.391,0.391-0.391,1.023,0,1.414l1.604,1.604c-0.525,0.841-0.934,1.764-1.161,2.76H19c-0.553,0-1,0.446-1,1v2
			C18,45.553,18.447,46,19,46z M30,37c3.866,0,7,3.134,7,7s-3.134,7-7,7s-7-3.134-7-7S26.134,37,30,37z M30,49c2.762,0,5-2.238,5-5
			s-2.238-5-5-5c-2.762,0-5,2.238-5,5S27.238,49,30,49z M30,41c1.657,0,3,1.343,3,3s-1.343,3-3,3s-3-1.343-3-3S28.343,41,30,41z
			 M56,8h-2V2c0-1.104-0.896-2-2-2H8C6.896,0,6,0.896,6,2v60c0,1.104,0.896,2,2,2h44c1.104,0,2-0.896,2-2V26h2c1.104,0,2-0.896,2-2
			V10C58,8.896,57.104,8,56,8z M52,8H28c-1.104,0-2,0.896-2,2v14c0,1.104,0.896,2,2,2h24v36H8V2h44V8z"/>
	</g>
</g>
<g enable-background="new    ">
	<path fill="#FFFFFF" d="M37.747,13.382v1.3h-2.99v1.7h2.29v1.25h-2.29v1.735h2.99v1.3h-4.69v-7.285H37.747z"/>
	<path fill="#FFFFFF" d="M40.502,16.922l-2.255-3.54h1.69c0.109,0,0.19,0.015,0.242,0.043c0.051,0.028,0.098,0.075,0.137,0.143
		l1.451,2.455c0.016-0.044,0.035-0.086,0.057-0.125c0.021-0.04,0.046-0.082,0.072-0.125l1.271-2.181
		c0.083-0.14,0.196-0.21,0.34-0.21h1.62l-2.285,3.465l2.335,3.82h-1.69c-0.109,0-0.199-0.026-0.268-0.08
		c-0.068-0.053-0.121-0.116-0.162-0.189l-1.459-2.551c-0.027,0.073-0.058,0.137-0.091,0.19l-1.36,2.36
		c-0.039,0.069-0.093,0.132-0.16,0.188c-0.066,0.055-0.149,0.082-0.25,0.082h-1.58L40.502,16.922z"/>
	<path fill="#FFFFFF" d="M50.517,13.382v1.3h-2.99v1.7h2.29v1.25h-2.29v1.735h2.99v1.3h-4.69v-7.285H50.517z"/>
</g>
</svg>
