<?xml version="1.0" encoding="utf-8"?>
<!-- Generator: Adobe Illustrator 16.0.0, SVG Export Plug-In . SVG Version: 6.00 Build 0)  -->
<!DOCTYPE svg PUBLIC "-//W3C//DTD SVG 1.1//EN" "http://www.w3.org/Graphics/SVG/1.1/DTD/svg11.dtd">
<svg version="1.1" id="Layer_1" xmlns="http://www.w3.org/2000/svg" xmlns:xlink="http://www.w3.org/1999/xlink" x="0px" y="0px"
	 width="64px" height="64px" viewBox="0 0 64 64" enable-background="new 0 0 64 64" xml:space="preserve">
<g id="Rectangle_43">
	<g>
		<rect x="7" y="1" fill="#EDF2F8" width="46" height="62"/>
	</g>
</g>
<g id="Rounded_Rectangle_7_1_">
	<g>
		<path fill="#8592A5" d="M24.127,54.352c1.89-0.768,4.203-2.541,5.483-4.658C30.108,48.864,31.172,46.889,32,45h5v-2h-4.271
			c0.313-1.212,0.834-2.782,2.346-4.805c1.441-2.202,4.932-2.17,4.932-2.17L40,34.021c0,0-2.893-0.465-5.917,1.938
			c-3.386,3.021-3.582,9.623-7.502,13.925C23.254,53.533,20,53,20,53l-0.006,1.989C19.994,54.989,22.244,55.111,24.127,54.352z
			 M56,8h-2V2c0-1.104-0.896-2-2-2H8C6.896,0,6,0.896,6,2v60c0,1.104,0.896,2,2,2h44c1.104,0,2-0.896,2-2V26h2c1.104,0,2-0.896,2-2
			V10C58,8.896,57.104,8,56,8z M52,8H28c-1.104,0-2,0.896-2,2v14c0,1.104,0.896,2,2,2h24v36H8V2h44V8z"/>
	</g>
</g>
<g enable-background="new    ">
	<path fill="#FFFFFF" d="M37.893,13.382v1.3h-2.99v1.846h2.49v1.305h-2.49v2.835h-1.699v-7.285H37.893z"/>
	<path fill="#FFFFFF" d="M40.463,19.317h2.699v1.35h-4.39v-7.285h1.69V19.317z"/>
	<path fill="#FFFFFF" d="M42.362,13.382h1.36c0.146,0,0.266,0.033,0.359,0.101c0.094,0.066,0.16,0.154,0.2,0.265l1.41,3.9
		c0.063,0.17,0.128,0.354,0.192,0.555s0.126,0.41,0.183,0.63c0.046-0.22,0.101-0.43,0.163-0.63c0.061-0.2,0.122-0.385,0.182-0.555
		l1.4-3.9c0.033-0.094,0.098-0.178,0.195-0.253c0.096-0.074,0.215-0.112,0.354-0.112h1.37l-2.92,7.285h-1.53L42.362,13.382z"/>
</g>
</svg>
