<?xml version="1.0" encoding="utf-8"?>
<!-- Generator: Adobe Illustrator 16.0.0, SVG Export Plug-In . SVG Version: 6.00 Build 0)  -->
<!DOCTYPE svg PUBLIC "-//W3C//DTD SVG 1.1//EN" "http://www.w3.org/Graphics/SVG/1.1/DTD/svg11.dtd">
<svg version="1.1" id="Layer_1" xmlns="http://www.w3.org/2000/svg" xmlns:xlink="http://www.w3.org/1999/xlink" x="0px" y="0px"
	 width="64px" height="64px" viewBox="0 0 64 64" enable-background="new 0 0 64 64" xml:space="preserve">
<g id="Rectangle_31">
	<g>
		<rect x="7" y="1" fill="#EDF2F8" width="46" height="62"/>
	</g>
</g>
<g id="Rounded_Rectangle_7_8_">
	<g>
		<path fill="#8592A5" d="M24.511,52.88c0.502,0.283,1.138,0.127,1.419-0.351l9.958-16.031c0.281-0.479,0.104-1.094-0.398-1.378
			s-1.139-0.127-1.42,0.351l-9.958,16.031C23.83,51.979,24.009,52.596,24.511,52.88z M37.286,49.713
			c0.389,0.389,1.017,0.389,1.405,0l4.959-4.959c0.021-0.018,0.047-0.023,0.065-0.044c0.198-0.198,0.292-0.46,0.287-0.72
			c0.001-0.256-0.097-0.51-0.291-0.704c-0.014-0.015-0.032-0.019-0.047-0.031l-4.972-4.972c-0.389-0.389-1.018-0.389-1.404,0
			c-0.389,0.388-0.389,1.017,0,1.404l4.309,4.309l-4.313,4.313C36.898,48.695,36.898,49.325,37.286,49.713z M16.347,44.752
			l4.961,4.961c0.388,0.389,1.017,0.389,1.404,0c0.389-0.388,0.389-1.018,0-1.404L18.4,43.996l4.309-4.309
			c0.388-0.389,0.388-1.018,0-1.404c-0.388-0.389-1.017-0.389-1.404,0l-4.97,4.971c-0.015,0.014-0.035,0.018-0.049,0.032
			c-0.194,0.194-0.291,0.45-0.291,0.705c-0.004,0.26,0.089,0.521,0.288,0.719C16.302,44.729,16.327,44.734,16.347,44.752z M56,8h-2
			V2c0-1.104-0.896-2-2-2H8C6.896,0,6,0.896,6,2v60c0,1.104,0.896,2,2,2h44c1.104,0,2-0.896,2-2V26h2c1.104,0,2-0.896,2-2V10
			C58,8.896,57.104,8,56,8z M52,8H22c-1.104,0-2,0.896-2,2v14c0,1.104,0.896,2,2,2h30v36H8V2h44V8z"/>
	</g>
</g>
<g enable-background="new    ">
	<path fill="#FFFFFF" d="M31.563,20.5h-1.7v-3.08h-2.96v3.08h-1.7v-7.285h1.7v3.045h2.96v-3.045h1.7V20.5z"/>
	<path fill="#FFFFFF" d="M38.053,13.215v1.34h-2.051V20.5h-1.689v-5.945h-2.05v-1.34H38.053z"/>
	<path fill="#FFFFFF" d="M42.67,17.564c0.062,0.137,0.121,0.277,0.178,0.421c0.057-0.147,0.116-0.29,0.18-0.429
		c0.063-0.138,0.129-0.272,0.195-0.402l1.869-3.684c0.033-0.063,0.068-0.113,0.104-0.148c0.035-0.034,0.074-0.061,0.117-0.077
		s0.092-0.025,0.147-0.025c0.055,0,0.119,0,0.192,0h1.29v7.28h-1.49v-4.19c0-0.203,0.011-0.423,0.03-0.659l-1.93,3.744
		c-0.061,0.117-0.141,0.205-0.242,0.266c-0.103,0.06-0.219,0.09-0.348,0.09h-0.23c-0.13,0-0.246-0.03-0.348-0.09
		c-0.102-0.061-0.183-0.148-0.242-0.266l-1.94-3.75c0.014,0.117,0.023,0.233,0.03,0.348c0.006,0.115,0.01,0.221,0.01,0.317v4.19
		h-1.49v-7.28h1.291c0.072,0,0.137,0,0.191,0c0.056,0,0.104,0.009,0.148,0.025c0.043,0.017,0.082,0.043,0.117,0.077
		c0.035,0.035,0.068,0.085,0.103,0.148l1.875,3.698C42.544,17.296,42.607,17.428,42.67,17.564z"/>
	<path fill="#FFFFFF" d="M49.832,19.15h2.701v1.35h-4.391v-7.285h1.689V19.15z"/>
</g>
</svg>
