<?xml version="1.0" encoding="utf-8"?>
<!-- Generator: Adobe Illustrator 16.0.0, SVG Export Plug-In . SVG Version: 6.00 Build 0)  -->
<!DOCTYPE svg PUBLIC "-//W3C//DTD SVG 1.1//EN" "http://www.w3.org/Graphics/SVG/1.1/DTD/svg11.dtd">
<svg version="1.1" id="Layer_1" xmlns="http://www.w3.org/2000/svg" xmlns:xlink="http://www.w3.org/1999/xlink" x="0px" y="0px"
	 width="64px" height="64px" viewBox="0 0 64 64" enable-background="new 0 0 64 64" xml:space="preserve">
<g id="Rectangle_41">
	<g>
		<rect x="7" y="1" fill="#EDF2F8" width="46" height="62"/>
	</g>
</g>
<g id="Ellipse_7">
	<g>
		<path fill="#FFFFFF" d="M30,33c-6.075,0-11,4.925-11,11s4.925,11,11,11s11-4.925,11-11S36.075,33,30,33z M30,46
			c-1.104,0-2-0.896-2-2s0.896-2,2-2s2,0.896,2,2S31.104,46,30,46z"/>
	</g>
</g>
<g id="icon_1_">
	<g>
		<path fill="#8592A5" d="M30,47c1.657,0,3-1.343,3-3s-1.343-3-3-3s-3,1.343-3,3S28.343,47,30,47z M30,43c0.553,0,1,0.447,1,1
			s-0.447,1-1,1s-1-0.447-1-1S29.447,43,30,43z M56,8h-2V2c0-1.104-0.896-2-2-2H8C6.896,0,6,0.896,6,2v60c0,1.104,0.896,2,2,2h44
			c1.104,0,2-0.896,2-2V26h2c1.104,0,2-0.896,2-2V10C58,8.896,57.104,8,56,8z M52,8H28c-1.104,0-2,0.896-2,2v14c0,1.104,0.896,2,2,2
			h24v36H8V2h44V8z M30,56c6.627,0,12-5.373,12-12s-5.373-12-12-12c-6.628,0-12,5.373-12,12S23.372,56,30,56z M30,34
			c5.521,0,10,4.479,10,10s-4.479,10-10,10c-5.522,0-10-4.479-10-10S24.478,34,30,34z"/>
	</g>
</g>
<g enable-background="new    ">
	<path fill="#FFFFFF" d="M35.808,20.667h-1.7v-7.285h1.7V20.667z"/>
	<path fill="#FFFFFF" d="M41.217,14.862c-0.05,0.08-0.102,0.14-0.157,0.18s-0.126,0.06-0.212,0.06c-0.077,0-0.16-0.023-0.248-0.072
		c-0.088-0.048-0.188-0.103-0.3-0.162c-0.112-0.061-0.239-0.114-0.383-0.163c-0.144-0.048-0.307-0.072-0.489-0.072
		c-0.317,0-0.553,0.067-0.708,0.203c-0.155,0.135-0.232,0.317-0.232,0.547c0,0.146,0.046,0.269,0.14,0.365s0.216,0.18,0.367,0.25
		c0.152,0.07,0.326,0.134,0.521,0.192s0.394,0.123,0.598,0.195c0.203,0.071,0.402,0.155,0.597,0.252
		c0.195,0.097,0.369,0.221,0.521,0.37c0.151,0.15,0.274,0.333,0.368,0.548c0.093,0.215,0.14,0.474,0.14,0.777
		c0,0.337-0.059,0.651-0.175,0.945c-0.117,0.293-0.286,0.549-0.508,0.768c-0.222,0.218-0.495,0.39-0.82,0.515
		c-0.324,0.125-0.693,0.188-1.107,0.188c-0.227,0-0.457-0.023-0.692-0.07s-0.462-0.112-0.683-0.197
		c-0.22-0.085-0.427-0.186-0.619-0.303c-0.193-0.116-0.362-0.246-0.506-0.39l0.5-0.79c0.037-0.061,0.088-0.108,0.155-0.146
		c0.066-0.036,0.138-0.055,0.215-0.055c0.101,0,0.2,0.032,0.303,0.095c0.102,0.063,0.216,0.134,0.345,0.21
		c0.129,0.077,0.275,0.147,0.442,0.21c0.167,0.063,0.363,0.096,0.591,0.096c0.307,0,0.545-0.067,0.715-0.203
		c0.17-0.135,0.254-0.349,0.254-0.643c0-0.17-0.046-0.308-0.139-0.414c-0.094-0.107-0.217-0.195-0.368-0.266
		s-0.324-0.132-0.518-0.185c-0.193-0.054-0.392-0.112-0.595-0.178s-0.402-0.146-0.596-0.24s-0.365-0.22-0.518-0.375
		c-0.151-0.155-0.273-0.348-0.367-0.58c-0.094-0.231-0.14-0.518-0.14-0.857c0-0.273,0.055-0.54,0.165-0.8
		c0.109-0.26,0.271-0.491,0.484-0.695c0.214-0.203,0.476-0.365,0.785-0.487c0.311-0.121,0.666-0.183,1.065-0.183
		c0.224,0,0.44,0.018,0.652,0.053s0.413,0.087,0.603,0.155s0.367,0.149,0.533,0.245c0.164,0.095,0.313,0.202,0.441,0.322
		L41.217,14.862z"/>
	<path fill="#FFFFFF" d="M49.768,17.022c0,0.526-0.092,1.017-0.273,1.47s-0.438,0.848-0.768,1.183S48,20.272,47.535,20.462
		c-0.466,0.19-0.981,0.285-1.549,0.285c-0.566,0-1.082-0.095-1.549-0.285c-0.467-0.189-0.866-0.452-1.197-0.787
		c-0.332-0.335-0.589-0.729-0.771-1.183c-0.183-0.453-0.272-0.943-0.272-1.47c0-0.527,0.09-1.018,0.272-1.471
		c0.182-0.453,0.438-0.847,0.771-1.18c0.331-0.333,0.73-0.595,1.197-0.785c0.467-0.189,0.982-0.285,1.549-0.285
		c0.567,0,1.083,0.096,1.549,0.288c0.465,0.191,0.861,0.454,1.191,0.787s0.586,0.727,0.768,1.18
		C49.676,16.011,49.768,16.499,49.768,17.022z M48.037,17.022c0-0.36-0.047-0.685-0.141-0.973c-0.093-0.289-0.227-0.533-0.402-0.732
		c-0.175-0.2-0.389-0.354-0.643-0.46c-0.253-0.107-0.541-0.16-0.865-0.16c-0.326,0-0.617,0.053-0.871,0.16
		c-0.256,0.106-0.471,0.26-0.646,0.46c-0.175,0.199-0.31,0.443-0.403,0.732c-0.093,0.288-0.139,0.612-0.139,0.973
		c0,0.363,0.046,0.688,0.139,0.977c0.094,0.289,0.229,0.533,0.403,0.733c0.175,0.199,0.39,0.353,0.646,0.457
		c0.254,0.105,0.545,0.157,0.871,0.157c0.324,0,0.612-0.052,0.865-0.157c0.254-0.104,0.468-0.258,0.643-0.457
		c0.176-0.2,0.31-0.444,0.402-0.733C47.99,17.711,48.037,17.386,48.037,17.022z"/>
</g>
</svg>
