<?xml version="1.0" encoding="utf-8"?>
<!-- Generator: Adobe Illustrator 16.0.0, SVG Export Plug-In . SVG Version: 6.00 Build 0)  -->
<!DOCTYPE svg PUBLIC "-//W3C//DTD SVG 1.1//EN" "http://www.w3.org/Graphics/SVG/1.1/DTD/svg11.dtd">
<svg version="1.1" id="Layer_1" xmlns="http://www.w3.org/2000/svg" xmlns:xlink="http://www.w3.org/1999/xlink" x="0px" y="0px"
	 width="64px" height="64px" viewBox="0 0 64 64" enable-background="new 0 0 64 64" xml:space="preserve">
<g id="Rectangle_45">
	<g>
		<rect x="7" y="1" fill="#EDF2F8" width="46" height="62"/>
	</g>
</g>
<g id="Rectangle_46">
	<g>
		<rect x="16" y="33" fill="#FFFFFF" width="28" height="22"/>
	</g>
</g>
<g id="Rectangle_47">
	<g>
		<polygon fill="#C2CDDC" points="37,42 32,47 25,40 16,49 16,55 44,55 44,49 		"/>
	</g>
</g>
<g id="icon">
	<g>
		<path fill="#8592A5" d="M17,56h26c1.104,0,2-0.896,2-2v-4.967c0-0.016,0-0.029,0-0.045V34c0-1.104-0.896-2-2-2H17
			c-1.104,0-2,0.896-2,2v14.986c0,0.017,0,0.031,0,0.048V54C15,55.104,15.896,56,17,56z M17,34h26v12.596l-5.244-5.244
			c-0.018-0.021-0.023-0.047-0.043-0.064c-0.195-0.196-0.455-0.292-0.713-0.289c-0.258-0.003-0.518,0.093-0.714,0.289
			c-0.021,0.02-0.026,0.046-0.044,0.066L32,45.596l-6.245-6.244c-0.017-0.021-0.023-0.047-0.042-0.064
			c-0.197-0.196-0.455-0.292-0.713-0.289c-0.258-0.003-0.517,0.093-0.714,0.289c-0.02,0.02-0.026,0.046-0.044,0.066L17,46.596V34z
			 M17,49.404l8-8l6.245,6.244c0.018,0.021,0.024,0.045,0.043,0.063s0.044,0.024,0.064,0.043l1.957,1.957
			c0.389,0.39,1.018,0.39,1.404,0c0.389-0.388,0.389-1.017,0-1.403L33.404,47L37,43.404l6,6V54H17V49.404z M56,8h-2V2
			c0-1.104-0.896-2-2-2H8C6.896,0,6,0.896,6,2v60c0,1.104,0.896,2,2,2h44c1.104,0,2-0.896,2-2V26h2c1.104,0,2-0.896,2-2V10
			C58,8.896,57.104,8,56,8z M52,8H28c-1.104,0-2,0.896-2,2v14c0,1.104,0.896,2,2,2h24v36H8V2h44V8z"/>
	</g>
</g>
<g enable-background="new    ">
	<path fill="#FFFFFF" d="M36.468,17.86c0,0.406-0.052,0.776-0.153,1.109c-0.102,0.334-0.254,0.619-0.459,0.857
		s-0.463,0.424-0.773,0.556c-0.31,0.131-0.674,0.197-1.094,0.197c-0.191,0-0.379-0.01-0.563-0.03c-0.186-0.02-0.379-0.053-0.578-0.1
		l0.09-0.985c0.007-0.087,0.041-0.156,0.103-0.21c0.062-0.053,0.147-0.08,0.257-0.08c0.057,0,0.127,0.01,0.211,0.027
		c0.083,0.019,0.184,0.028,0.3,0.028c0.163,0,0.306-0.023,0.427-0.068c0.123-0.045,0.223-0.119,0.303-0.225s0.141-0.242,0.181-0.412
		s0.06-0.381,0.06-0.631v-4.68h1.69V17.86z"/>
	<path fill="#FFFFFF" d="M39.357,18.065V20.5h-1.689v-7.285h2.569c0.513,0,0.954,0.061,1.323,0.183
		c0.367,0.122,0.671,0.289,0.909,0.503c0.238,0.213,0.414,0.465,0.528,0.755c0.113,0.29,0.17,0.604,0.17,0.939
		c0,0.363-0.059,0.697-0.176,1c-0.117,0.304-0.295,0.563-0.535,0.78s-0.544,0.386-0.912,0.508c-0.368,0.121-0.805,0.183-1.308,0.183
		H39.357z M39.357,16.79h0.88c0.44,0,0.757-0.105,0.95-0.315s0.29-0.503,0.29-0.88c0-0.166-0.025-0.318-0.075-0.455
		s-0.126-0.254-0.228-0.353c-0.102-0.098-0.229-0.174-0.385-0.228c-0.155-0.053-0.339-0.079-0.553-0.079h-0.88V16.79z"/>
	<path fill="#FFFFFF" d="M47.477,19.28c0.234,0,0.441-0.021,0.621-0.061s0.35-0.093,0.51-0.16v-1.104h-0.721
		c-0.105,0-0.189-0.028-0.25-0.085c-0.06-0.057-0.09-0.128-0.09-0.215v-0.931h2.59V19.8c-0.186,0.137-0.381,0.255-0.582,0.353
		c-0.201,0.099-0.416,0.18-0.645,0.242c-0.229,0.063-0.473,0.11-0.73,0.141s-0.535,0.045-0.832,0.045
		c-0.533,0-1.027-0.094-1.48-0.282s-0.846-0.448-1.178-0.78s-0.592-0.725-0.779-1.18c-0.189-0.455-0.283-0.949-0.283-1.482
		c0-0.544,0.09-1.043,0.271-1.498c0.18-0.455,0.438-0.848,0.772-1.178s0.74-0.586,1.215-0.77s1.006-0.275,1.592-0.275
		c0.305,0,0.589,0.025,0.855,0.075c0.268,0.05,0.513,0.118,0.738,0.205c0.225,0.087,0.43,0.19,0.617,0.31
		c0.187,0.12,0.354,0.25,0.5,0.391l-0.49,0.745c-0.047,0.069-0.103,0.125-0.168,0.165c-0.064,0.04-0.135,0.06-0.212,0.06
		c-0.101,0-0.204-0.033-0.31-0.1c-0.134-0.08-0.26-0.149-0.378-0.208s-0.239-0.105-0.362-0.143c-0.123-0.036-0.254-0.063-0.391-0.08
		s-0.289-0.024-0.459-0.024c-0.317,0-0.603,0.056-0.855,0.167c-0.254,0.112-0.469,0.27-0.648,0.473
		c-0.178,0.203-0.314,0.447-0.412,0.732c-0.096,0.285-0.145,0.603-0.145,0.953c0,0.387,0.053,0.729,0.16,1.029
		c0.106,0.3,0.254,0.554,0.442,0.76c0.188,0.207,0.411,0.364,0.67,0.473S47.17,19.28,47.477,19.28z"/>
</g>
</svg>
