<?xml version="1.0" encoding="utf-8"?>
<!-- Generator: Adobe Illustrator 16.0.0, SVG Export Plug-In . SVG Version: 6.00 Build 0)  -->
<!DOCTYPE svg PUBLIC "-//W3C//DTD SVG 1.1//EN" "http://www.w3.org/Graphics/SVG/1.1/DTD/svg11.dtd">
<svg version="1.1" id="Layer_1" xmlns="http://www.w3.org/2000/svg" xmlns:xlink="http://www.w3.org/1999/xlink" x="0px" y="0px"
	 width="64px" height="64px" viewBox="0 0 64 64" enable-background="new 0 0 64 64" xml:space="preserve">
<g id="Rectangle_22_2_">
	<g>
		<polygon fill="#EDF2F8" points="41,15 41,1 9,1 9,63 55,63 55,15 		"/>
	</g>
</g>
<g id="Rectangle_23_1_">
	<g>
		<polygon fill="#FFFFFF" points="41,1 41,15 55,15 		"/>
	</g>
</g>
<g id="icon_9_">
	<g>
		<path fill-rule="evenodd" clip-rule="evenodd" fill="#8592A5" d="M55.994,14.989c-0.009-0.237-0.098-0.474-0.279-0.655
			L41.666,0.285c-0.179-0.179-0.411-0.267-0.646-0.277C41.014,0.006,41,0,41,0H10C8.896,0,8,0.896,8,2v60c0,1.104,0.896,2,2,2h44
			c1.104,0,2-0.896,2-2V15C56,15,55.995,14.991,55.994,14.989z M42,3.381L52.619,14C48.477,14,42,14,42,14S42,7.524,42,3.381z
			 M54,62H10V2h30v14h14V62z M36.272,24.577l-5.695,5.695c-0.786,0.786-0.786,2.062,0,2.848l1.396,1.396l-1.458,1.458l-1.396-1.396
			c-0.786-0.786-2.062-0.786-2.848,0l-5.695,5.695c-0.786,0.786-0.786,2.062,0,2.848l4.271,4.271c0.786,0.787,2.062,0.787,2.848,0
			l5.694-5.694c0.787-0.786,0.787-2.062,0-2.848l-1.396-1.397l1.457-1.457l1.397,1.396c0.786,0.787,2.062,0.787,2.848,0l5.694-5.694
			c0.787-0.786,0.787-2.062,0-2.848l-4.271-4.271C38.334,23.791,37.059,23.791,36.272,24.577z M32.013,40.284l-5.729,5.729
			l-4.297-4.297l5.729-5.729l1.394,1.394l-0.82,0.819c-0.408,0.408-0.408,1.069,0,1.478s1.07,0.408,1.479,0l0.819-0.819
			L32.013,40.284z M36.284,36.013l-1.426-1.426l0.819-0.82c0.408-0.407,0.408-1.069,0-1.478s-1.069-0.408-1.478,0l-0.819,0.82
			l-1.394-1.394l5.729-5.729l4.297,4.297L36.284,36.013z"/>
	</g>
</g>
</svg>
