<?xml version="1.0" encoding="utf-8"?>
<!-- Generator: Adobe Illustrator 16.0.0, SVG Export Plug-In . SVG Version: 6.00 Build 0)  -->
<!DOCTYPE svg PUBLIC "-//W3C//DTD SVG 1.1//EN" "http://www.w3.org/Graphics/SVG/1.1/DTD/svg11.dtd">
<svg version="1.1" id="Layer_1" xmlns="http://www.w3.org/2000/svg" xmlns:xlink="http://www.w3.org/1999/xlink" x="0px" y="0px"
	 width="64px" height="64px" viewBox="0 0 64 64" enable-background="new 0 0 64 64" xml:space="preserve">
<g id="Rectangle_22_5_">
	<g>
		<polygon fill="#EDF2F8" points="41,15 41,1 9,1 9,63 55,63 55,15 		"/>
	</g>
</g>
<g id="Rectangle_23_4_">
	<g>
		<polygon fill="#FFFFFF" points="41,1 41,15 55,15 		"/>
	</g>
</g>
<g id="Rectangle_24">
	<g>
		<path fill-rule="evenodd" clip-rule="evenodd" fill="#C2CDDC" d="M22,34c-1.104,0-2,0.896-2,2s0.896,2,2,2s2-0.896,2-2
			S23.104,34,22,34z M32,34c-1.104,0-2,0.896-2,2s0.896,2,2,2s2-0.896,2-2S33.104,34,32,34z M42,34c-1.104,0-2,0.896-2,2
			s0.896,2,2,2s2-0.896,2-2S43.104,34,42,34z"/>
	</g>
</g>
<g id="icon_14_">
	<g>
		<path fill-rule="evenodd" clip-rule="evenodd" fill="#8592A5" d="M55.994,14.989c-0.009-0.237-0.098-0.474-0.279-0.655
			L41.666,0.285c-0.179-0.179-0.411-0.267-0.646-0.277C41.014,0.006,41,0,41,0H10C8.896,0,8,0.896,8,2v60c0,1.104,0.896,2,2,2h44
			c1.104,0,2-0.896,2-2V15C56,15,55.995,14.991,55.994,14.989z M42,3.381L52.619,14C48.477,14,42,14,42,14S42,7.524,42,3.381z
			 M54,62H10V2h30v14h14V62z M22,33c-1.657,0-3,1.343-3,3s1.343,3,3,3s3-1.343,3-3S23.657,33,22,33z M22,37c-0.553,0-1-0.447-1-1
			s0.447-1,1-1s1,0.447,1,1S22.553,37,22,37z M32,33c-1.657,0-3,1.343-3,3s1.343,3,3,3s3-1.343,3-3S33.657,33,32,33z M32,37
			c-0.553,0-1-0.447-1-1s0.447-1,1-1s1,0.447,1,1S32.553,37,32,37z M39,36c0,1.657,1.343,3,3,3s3-1.343,3-3s-1.343-3-3-3
			S39,34.343,39,36z M42,35c0.553,0,1,0.447,1,1s-0.447,1-1,1s-1-0.447-1-1S41.447,35,42,35z"/>
	</g>
</g>
</svg>
