<?xml version="1.0" encoding="utf-8"?>
<!-- Generator: Adobe Illustrator 16.0.0, SVG Export Plug-In . SVG Version: 6.00 Build 0)  -->
<!DOCTYPE svg PUBLIC "-//W3C//DTD SVG 1.1//EN" "http://www.w3.org/Graphics/SVG/1.1/DTD/svg11.dtd">
<svg version="1.1" id="Layer_1" xmlns="http://www.w3.org/2000/svg" xmlns:xlink="http://www.w3.org/1999/xlink" x="0px" y="0px"
	 width="64px" height="64px" viewBox="0 0 64 64" enable-background="new 0 0 64 64" xml:space="preserve">
<g id="Rectangle_26">
	<g>
		<rect x="7" y="1" fill="#EDF2F8" width="46" height="62"/>
	</g>
</g>
<g id="Ellipse_6">
	<g>
		<circle fill="#FFFFFF" cx="31" cy="44" r="11"/>
	</g>
</g>
<g id="icon_5_">
	<g>
		<path fill="#8592A5" d="M56,8h-2V2c0-1.104-0.896-2-2-2H8C6.896,0,6,0.896,6,2v60c0,1.104,0.896,2,2,2h44c1.104,0,2-0.896,2-2V26
			h2c1.104,0,2-0.896,2-2V10C58,8.896,57.104,8,56,8z M52,8H28c-1.104,0-2,0.896-2,2v14c0,1.104,0.896,2,2,2h24v36H8V2h44V8z M31,56
			c6.627,0,12-5.373,12-12c0-6.628-5.373-12-12-12s-12,5.372-12,12C19,50.627,24.373,56,31,56z M31,34c5.521,0,10,4.479,10,10
			s-4.479,10-10,10c-5.522,0-10-4.479-10-10S25.478,34,31,34z M28.073,47.364c0.005,0.013,0.009,0.024,0.014,0.038
			c0.02,0.046,0.023,0.096,0.051,0.14c0.04,0.065,0.101,0.11,0.153,0.163c0.002,0.001,0.002,0.002,0.004,0.003
			c0.088,0.087,0.188,0.153,0.301,0.203c0.01,0.004,0.019,0.009,0.028,0.013c0.117,0.047,0.239,0.071,0.367,0.074
			C28.994,47.998,28.997,48,29,48c0.002,0,0.003-0.001,0.004-0.001c0.177,0.002,0.354-0.022,0.518-0.11l4.97-3.14
			c0.081-0.044,0.119-0.08,0.143-0.114c0.182-0.154,0.305-0.377,0.305-0.635s-0.123-0.48-0.305-0.635
			c-0.021-0.034-0.062-0.07-0.143-0.114l-4.97-3.14c-0.164-0.088-0.341-0.112-0.518-0.11C29.003,40.001,29.002,40,29,40
			c-0.003,0-0.006,0.002-0.009,0.002c-0.128,0.003-0.25,0.027-0.367,0.074c-0.01,0.004-0.019,0.008-0.028,0.013
			c-0.113,0.05-0.213,0.116-0.301,0.203c-0.002,0.001-0.002,0.002-0.004,0.003c-0.053,0.053-0.113,0.098-0.153,0.163
			c-0.027,0.044-0.031,0.094-0.051,0.14c-0.005,0.014-0.009,0.025-0.014,0.038c-0.033,0.093-0.055,0.185-0.056,0.279
			C28.015,40.943,28,40.971,28,41v6c0,0.029,0.015,0.057,0.018,0.085C28.019,47.18,28.04,47.271,28.073,47.364z"/>
	</g>
</g>
<g enable-background="new    ">
	<path fill="#FFFFFF" d="M33.805,17.564c0.062,0.137,0.121,0.277,0.178,0.421c0.057-0.147,0.116-0.29,0.18-0.429
		c0.063-0.138,0.129-0.272,0.195-0.402l1.869-3.684c0.033-0.063,0.068-0.113,0.104-0.148c0.035-0.034,0.074-0.061,0.117-0.077
		s0.092-0.025,0.147-0.025c0.055,0,0.119,0,0.192,0h1.29v7.28h-1.49v-4.19c0-0.203,0.011-0.423,0.03-0.659l-1.93,3.744
		c-0.061,0.117-0.141,0.205-0.242,0.266c-0.103,0.06-0.219,0.09-0.348,0.09h-0.23c-0.13,0-0.246-0.03-0.348-0.09
		c-0.102-0.061-0.183-0.148-0.242-0.266l-1.94-3.75c0.014,0.117,0.023,0.233,0.03,0.348c0.006,0.115,0.01,0.221,0.01,0.317v4.19
		h-1.49v-7.28h1.29c0.073,0,0.137,0,0.192,0s0.104,0.009,0.147,0.025s0.083,0.043,0.118,0.077c0.035,0.035,0.069,0.085,0.103,0.148
		l1.875,3.698C33.679,17.296,33.742,17.428,33.805,17.564z"/>
	<path fill="#FFFFFF" d="M46.467,16.855c0,0.526-0.09,1.017-0.271,1.47s-0.438,0.848-0.768,1.183s-0.729,0.598-1.193,0.787
		c-0.465,0.19-0.98,0.285-1.547,0.285s-1.084-0.095-1.551-0.285c-0.467-0.189-0.865-0.452-1.197-0.787s-0.588-0.729-0.77-1.183
		s-0.272-0.943-0.272-1.47c0-0.527,0.091-1.018,0.272-1.471s0.438-0.847,0.77-1.18s0.73-0.595,1.197-0.785
		c0.467-0.189,0.984-0.285,1.551-0.285s1.082,0.096,1.547,0.288c0.465,0.191,0.863,0.454,1.193,0.787s0.586,0.727,0.768,1.18
		C46.377,15.844,46.467,16.332,46.467,16.855z M44.737,16.855c0-0.36-0.047-0.685-0.14-0.973c-0.094-0.289-0.229-0.533-0.402-0.732
		c-0.176-0.2-0.39-0.354-0.643-0.46c-0.254-0.107-0.542-0.16-0.865-0.16c-0.327,0-0.617,0.053-0.873,0.16
		c-0.255,0.106-0.47,0.26-0.645,0.46c-0.176,0.199-0.31,0.443-0.402,0.732c-0.094,0.288-0.141,0.612-0.141,0.973
		c0,0.363,0.047,0.688,0.141,0.977c0.093,0.289,0.227,0.533,0.402,0.733c0.175,0.199,0.39,0.353,0.645,0.457
		c0.256,0.105,0.546,0.157,0.873,0.157c0.323,0,0.611-0.052,0.865-0.157c0.253-0.104,0.467-0.258,0.643-0.457
		c0.174-0.2,0.309-0.444,0.402-0.733C44.69,17.544,44.737,17.219,44.737,16.855z"/>
	<path fill="#FFFFFF" d="M46.377,13.215h1.359c0.147,0,0.268,0.033,0.361,0.101c0.093,0.066,0.159,0.154,0.199,0.265l1.41,3.9
		c0.063,0.17,0.127,0.354,0.192,0.555s0.126,0.41,0.183,0.63c0.047-0.22,0.101-0.43,0.162-0.63c0.063-0.2,0.123-0.385,0.183-0.555
		l1.4-3.9c0.033-0.094,0.099-0.178,0.194-0.253c0.098-0.074,0.215-0.112,0.355-0.112h1.37l-2.92,7.285h-1.53L46.377,13.215z"/>
</g>
</svg>
