<?xml version="1.0" encoding="utf-8"?>
<!-- Generator: Adobe Illustrator 16.0.0, SVG Export Plug-In . SVG Version: 6.00 Build 0)  -->
<!DOCTYPE svg PUBLIC "-//W3C//DTD SVG 1.1//EN" "http://www.w3.org/Graphics/SVG/1.1/DTD/svg11.dtd">
<svg version="1.1" id="Layer_1" xmlns="http://www.w3.org/2000/svg" xmlns:xlink="http://www.w3.org/1999/xlink" x="0px" y="0px"
	 width="64px" height="64px" viewBox="0 0 64 64" enable-background="new 0 0 64 64" xml:space="preserve">
<g id="Rectangle_33">
	<g>
		<rect x="7" y="1" fill="#EDF2F8" width="46" height="62"/>
	</g>
</g>
<g id="Ellipse_9">
	<g>
		<path fill="#C2CDDC" d="M21.472,51.154c-1.635,0.41-2.723,1.568-2.431,2.587c0.291,1.02,1.854,1.514,3.487,1.104
			c1.635-0.41,2.723-1.568,2.431-2.589C24.667,51.239,23.105,50.745,21.472,51.154z M40.959,48.258
			c-0.292-1.019-1.854-1.513-3.486-1.104c-1.636,0.41-2.724,1.568-2.432,2.587c0.291,1.02,1.854,1.514,3.486,1.104
			C40.163,50.436,41.251,49.277,40.959,48.258z M41,33l-16,4v4l16-4V33z"/>
	</g>
</g>
<g id="Rounded_Rectangle_7_6_">
	<g>
		<path fill="#8592A5" d="M22.782,55.811c2.006-0.518,3.332-2.035,3.155-3.498C25.97,52.213,26,52.111,26,52V41.75l14-3.5v7.995
			c-0.813-0.267-1.787-0.312-2.782-0.056c-2.151,0.555-3.544,2.263-3.112,3.813c0.434,1.552,2.526,2.36,4.678,1.806
			c2.006-0.517,3.332-2.035,3.154-3.496C41.971,48.213,42,48.111,42,48V33c0-0.553-0.447-1-1-1c-0.157,0-0.302,0.044-0.434,0.108
			L25,36c-0.553,0-1,0.447-1,1v13.245c-0.812-0.267-1.787-0.312-2.782-0.056c-2.151,0.555-3.544,2.263-3.112,3.813
			C18.538,55.557,20.632,56.364,22.782,55.811z M38.268,49.883c-1.102,0.262-2.113,0.078-2.262-0.408
			c-0.146-0.488,0.626-1.097,1.727-1.356c1.103-0.263,2.115-0.078,2.263,0.409C40.143,49.016,39.368,49.622,38.268,49.883z
			 M26,37.75l14-3.5v2l-14,3.5V37.75z M21.732,52.117c1.102-0.262,2.114-0.078,2.262,0.408c0.147,0.488-0.626,1.097-1.727,1.356
			c-1.102,0.263-2.114,0.078-2.262-0.409C19.858,52.984,20.632,52.378,21.732,52.117z M56,8h-2V2c0-1.104-0.896-2-2-2H8
			C6.896,0,6,0.896,6,2v60c0,1.104,0.896,2,2,2h44c1.104,0,2-0.896,2-2V26h2c1.104,0,2-0.896,2-2V10C58,8.896,57.104,8,56,8z M52,8
			H28c-1.104,0-2,0.896-2,2v14c0,1.104,0.896,2,2,2h24v36H8V2h44V8z"/>
	</g>
</g>
<g enable-background="new    ">
	<path fill="#FFFFFF" d="M35.399,17.564c0.062,0.137,0.12,0.277,0.177,0.421c0.057-0.147,0.117-0.29,0.181-0.429
		c0.063-0.138,0.128-0.272,0.194-0.402l1.871-3.684c0.033-0.063,0.066-0.113,0.102-0.148c0.035-0.034,0.074-0.061,0.118-0.077
		c0.043-0.017,0.093-0.025,0.147-0.025s0.119,0,0.192,0h1.29v7.28h-1.49v-4.19c0-0.203,0.01-0.423,0.03-0.659l-1.931,3.744
		c-0.06,0.117-0.141,0.205-0.242,0.266c-0.102,0.06-0.217,0.09-0.348,0.09h-0.229c-0.13,0-0.246-0.03-0.348-0.09
		c-0.102-0.061-0.183-0.148-0.242-0.266l-1.94-3.75c0.014,0.117,0.023,0.233,0.03,0.348c0.007,0.115,0.01,0.221,0.01,0.317v4.19
		h-1.49v-7.28h1.29c0.074,0,0.138,0,0.193,0c0.055,0,0.104,0.009,0.146,0.025c0.044,0.017,0.083,0.043,0.118,0.077
		c0.034,0.035,0.069,0.085,0.103,0.148l1.875,3.698C35.273,17.296,35.338,17.428,35.399,17.564z"/>
	<path fill="#FFFFFF" d="M42.563,18.065V20.5h-1.69v-7.285h2.569c0.514,0,0.955,0.061,1.323,0.183s0.671,0.289,0.909,0.503
		c0.238,0.213,0.414,0.465,0.528,0.755c0.113,0.29,0.17,0.604,0.17,0.939c0,0.363-0.059,0.697-0.175,1
		c-0.117,0.304-0.295,0.563-0.535,0.78s-0.545,0.386-0.912,0.508c-0.369,0.121-0.805,0.183-1.309,0.183H42.563z M42.563,16.79h0.879
		c0.44,0,0.758-0.105,0.951-0.315s0.289-0.503,0.289-0.88c0-0.166-0.025-0.318-0.074-0.455c-0.051-0.137-0.127-0.254-0.229-0.353
		c-0.102-0.098-0.229-0.174-0.385-0.228c-0.154-0.053-0.339-0.079-0.553-0.079h-0.879V16.79z"/>
	<path fill="#FFFFFF" d="M49.802,13.135c0.36,0,0.681,0.051,0.96,0.152c0.28,0.103,0.517,0.239,0.71,0.413
		c0.193,0.173,0.341,0.374,0.44,0.603s0.15,0.469,0.15,0.723c0,0.229-0.023,0.432-0.07,0.607c-0.047,0.175-0.116,0.326-0.208,0.455
		c-0.091,0.128-0.204,0.237-0.34,0.327c-0.135,0.09-0.289,0.165-0.462,0.225c0.807,0.28,1.209,0.829,1.209,1.646
		c0,0.387-0.069,0.724-0.209,1.01c-0.141,0.287-0.328,0.525-0.563,0.715c-0.235,0.19-0.508,0.333-0.818,0.428
		c-0.31,0.095-0.633,0.143-0.97,0.143c-0.347,0-0.655-0.037-0.925-0.112s-0.51-0.192-0.721-0.351
		c-0.209-0.158-0.394-0.36-0.552-0.607c-0.159-0.246-0.296-0.54-0.413-0.88l0.69-0.28c0.06-0.026,0.119-0.045,0.177-0.055
		c0.059-0.01,0.117-0.015,0.174-0.015c0.105,0,0.201,0.021,0.287,0.063c0.085,0.041,0.148,0.103,0.192,0.183
		c0.149,0.276,0.31,0.478,0.478,0.603s0.365,0.188,0.592,0.188c0.174,0,0.324-0.029,0.453-0.088s0.234-0.134,0.32-0.225
		c0.084-0.092,0.148-0.196,0.191-0.313c0.044-0.117,0.066-0.235,0.066-0.355c0-0.156-0.012-0.298-0.033-0.423
		s-0.082-0.232-0.183-0.322s-0.251-0.159-0.452-0.207c-0.202-0.049-0.482-0.073-0.843-0.073V16.24c0.304,0,0.548-0.023,0.735-0.07
		c0.187-0.047,0.33-0.11,0.432-0.192s0.17-0.181,0.203-0.298c0.033-0.116,0.05-0.245,0.05-0.385c0-0.286-0.069-0.508-0.208-0.662
		c-0.138-0.155-0.349-0.232-0.632-0.232c-0.116,0-0.224,0.017-0.319,0.05c-0.098,0.033-0.184,0.078-0.261,0.135
		s-0.143,0.123-0.197,0.2c-0.056,0.076-0.1,0.16-0.133,0.25c-0.054,0.149-0.12,0.258-0.202,0.325c-0.082,0.066-0.193,0.1-0.332,0.1
		c-0.034,0-0.07-0.002-0.108-0.005s-0.077-0.009-0.117-0.015l-0.82-0.146c0.054-0.363,0.155-0.68,0.308-0.95
		c0.152-0.27,0.34-0.495,0.564-0.675c0.226-0.18,0.482-0.314,0.773-0.402C49.156,13.18,49.469,13.135,49.802,13.135z"/>
</g>
</svg>
