<?xml version="1.0" encoding="utf-8"?>
<!-- Generator: Adobe Illustrator 16.0.0, SVG Export Plug-In . SVG Version: 6.00 Build 0)  -->
<!DOCTYPE svg PUBLIC "-//W3C//DTD SVG 1.1//EN" "http://www.w3.org/Graphics/SVG/1.1/DTD/svg11.dtd">
<svg version="1.1" id="Layer_1" xmlns="http://www.w3.org/2000/svg" xmlns:xlink="http://www.w3.org/1999/xlink" x="0px" y="0px"
	 width="64px" height="64px" viewBox="0 0 64 64" enable-background="new 0 0 64 64" xml:space="preserve">
<g id="Rectangle_22">
	<g>
		<path fill-rule="evenodd" clip-rule="evenodd" fill="#EDF2F8" d="M9,1v62h46V1H9z M18,53c-1.657,0-3-1.343-3-3s1.343-3,3-3
			s3,1.343,3,3S19.657,53,18,53z M18,41c-1.657,0-3-1.343-3-3s1.343-3,3-3s3,1.343,3,3S19.657,41,18,41z M18,29
			c-1.657,0-3-1.343-3-3s1.343-3,3-3s3,1.343,3,3S19.657,29,18,29z M18,17c-1.657,0-3-1.343-3-3s1.343-3,3-3s3,1.343,3,3
			S19.657,17,18,17z"/>
	</g>
</g>
<g id="icon_7_">
	<g>
		<path fill-rule="evenodd" clip-rule="evenodd" fill="#8592A5" d="M54,0H10C8.896,0,8,0.896,8,2v60c0,1.104,0.896,2,2,2h44
			c1.104,0,2-0.896,2-2V2C56,0.896,55.104,0,54,0z M54,62H10V51h4.142c0.446,1.722,1.997,3,3.858,3s3.412-1.278,3.858-3H54V62z
			 M16,50c0-1.104,0.896-2,2-2s2,0.896,2,2s-0.896,2-2,2S16,51.104,16,50z M54,49H21.858c-0.446-1.722-1.997-3-3.858-3
			s-3.412,1.278-3.858,3H10V39h4.142c0.446,1.722,1.997,3,3.858,3s3.412-1.278,3.858-3H54V49z M16,38c0-1.104,0.896-2,2-2
			s2,0.896,2,2s-0.896,2-2,2S16,39.104,16,38z M54,37H21.858c-0.446-1.722-1.997-3-3.858-3s-3.412,1.278-3.858,3H10V27h4.142
			c0.446,1.722,1.997,3,3.858,3s3.412-1.278,3.858-3H54V37z M16,26c0-1.104,0.896-2,2-2s2,0.896,2,2s-0.896,2-2,2S16,27.104,16,26z
			 M54,25H21.858c-0.446-1.722-1.997-3-3.858-3s-3.412,1.278-3.858,3H10V15h4.142c0.446,1.722,1.997,3,3.858,3s3.412-1.278,3.858-3
			H54V25z M16,14c0-1.104,0.896-2,2-2s2,0.896,2,2s-0.896,2-2,2S16,15.104,16,14z M54,13H21.858c-0.446-1.722-1.997-3-3.858-3
			s-3.412,1.278-3.858,3H10V2h44V13z"/>
	</g>
</g>
</svg>
