<?xml version="1.0" encoding="utf-8"?>
<!-- Generator: Adobe Illustrator 16.0.0, SVG Export Plug-In . SVG Version: 6.00 Build 0)  -->
<!DOCTYPE svg PUBLIC "-//W3C//DTD SVG 1.1//EN" "http://www.w3.org/Graphics/SVG/1.1/DTD/svg11.dtd">
<svg version="1.1" id="Layer_1" xmlns="http://www.w3.org/2000/svg" xmlns:xlink="http://www.w3.org/1999/xlink" x="0px" y="0px"
	 width="64px" height="64px" viewBox="0 0 64 64" enable-background="new 0 0 64 64" xml:space="preserve">
<g id="Rectangle_34">
	<g>
		<rect x="7" y="1" fill="#EDF2F8" width="46" height="62"/>
	</g>
</g>
<g id="icon_3_">
	<g>
		<path fill="#8592A5" d="M56,8h-2V2c0-1.104-0.896-2-2-2H8C6.896,0,6,0.896,6,2v60c0,1.104,0.896,2,2,2h44c1.104,0,2-0.896,2-2V26
			h2c1.104,0,2-0.896,2-2V10C58,8.896,57.104,8,56,8z M52,8H28c-1.104,0-2,0.896-2,2v14c0,1.104,0.896,2,2,2h24v36H8V2h44V8z
			 M22.941,54.003c0.872-1.349,1.478-3.134,1.599-3.916c3.098-1.431,6.609-1.962,9.479-2.14c0.664,0.585,1.58,1.474,2.426,2.166
			c2.145,1.753,3.691,2.313,5.361,1.438c0.623-0.325,1.03-1.048,1.131-1.886c0.008-0.023,0.021-0.04,0.026-0.064l0.015-0.08
			c0-1.135-0.703-2.912-3.047-3.295c-1.918-0.313-4.474-0.235-5.527-0.142c-3.073-2.345-5.637-4.575-7.246-6.089
			c0.126-1.225,0.29-3.523-0.096-4.747c-0.941-2.983-4.525-3.083-5.023,0.106c-0.368,2.355,2.262,4.664,3.011,5.268
			c-0.512,2.281-1.475,6.077-2.04,8.273c-0.663,0.295-1.525,0.694-2.288,1.112c-1.523,0.835-2.732,2.579-2.704,3.729
			C18.1,57.084,21.487,56.252,22.941,54.003z M36.881,47.977c1.313,0,2.239-0.017,2.287-0.013c0.303,0.011,1.198,0.162,1.611,0.646
			c0.16,0.189,0.224,0.324,0.193,0.619C40.773,49.962,40.45,50,40.098,50c-0.408,0-0.959-0.232-1.05-0.273
			c-1.024-0.641-1.135-0.838-2.224-1.771C36.833,47.954,36.872,47.977,36.881,47.977z M26.732,42.009l5.094,4.357
			c-0.977,0.116-2.355,0.259-3.64,0.567c-1.159,0.276-2.119,0.646-2.87,0.924L26.732,42.009z M25.018,37.902
			c-1.132-1.256-1.114-2.159-1.054-2.369c0.1-0.352,0.238-0.547,0.492-0.547c0.414,0,0.552,0.295,0.644,0.429
			c0.231,0.341,0.422,1.222,0.328,2.903C25.16,38.052,25.018,37.902,25.018,37.902z M20.217,52.941
			c0.616-0.951,1.168-1.346,2.236-1.926c-1.041,2.739-2.023,2.978-2.417,2.989c-0.01-0.009-0.015-0.019-0.02-0.026
			C19.915,53.779,20.037,53.296,20.217,52.941z"/>
	</g>
</g>
<g enable-background="new    ">
	<path fill="#FFFFFF" d="M34.271,18.065V20.5h-1.689v-7.285h2.569c0.513,0,0.954,0.061,1.323,0.183
		c0.367,0.122,0.671,0.289,0.909,0.503c0.238,0.213,0.414,0.465,0.528,0.755c0.113,0.29,0.17,0.604,0.17,0.939
		c0,0.363-0.059,0.697-0.176,1c-0.117,0.304-0.295,0.563-0.535,0.78s-0.544,0.386-0.912,0.508c-0.368,0.121-0.805,0.183-1.308,0.183
		H34.271z M34.271,16.79h0.88c0.44,0,0.757-0.105,0.95-0.315s0.29-0.503,0.29-0.88c0-0.166-0.025-0.318-0.075-0.455
		s-0.126-0.254-0.228-0.353c-0.102-0.098-0.229-0.174-0.385-0.228c-0.155-0.053-0.339-0.079-0.553-0.079h-0.88V16.79z"/>
	<path fill="#FFFFFF" d="M45.571,16.855c0,0.526-0.091,1.012-0.272,1.457s-0.438,0.83-0.768,1.155s-0.728,0.578-1.192,0.76
		S42.357,20.5,41.791,20.5h-2.83v-7.285h2.83c0.566,0,1.083,0.092,1.548,0.275s0.862,0.437,1.192,0.76s0.586,0.707,0.768,1.152
		S45.571,16.332,45.571,16.855z M43.842,16.855c0-0.36-0.047-0.686-0.141-0.976s-0.228-0.536-0.402-0.737
		c-0.175-0.202-0.389-0.356-0.643-0.465s-0.541-0.163-0.865-0.163h-1.13V19.2h1.13c0.324,0,0.611-0.055,0.865-0.163
		c0.254-0.107,0.468-0.263,0.643-0.465c0.175-0.201,0.309-0.447,0.402-0.737S43.842,17.219,43.842,16.855z"/>
	<path fill="#FFFFFF" d="M51.071,13.215v1.3h-2.99v1.846h2.49v1.305h-2.49V20.5h-1.7v-7.285H51.071z"/>
</g>
</svg>
