<?xml version="1.0" encoding="utf-8"?>
<!-- Generator: Adobe Illustrator 16.0.0, SVG Export Plug-In . SVG Version: 6.00 Build 0)  -->
<!DOCTYPE svg PUBLIC "-//W3C//DTD SVG 1.1//EN" "http://www.w3.org/Graphics/SVG/1.1/DTD/svg11.dtd">
<svg version="1.1" id="Layer_1" xmlns="http://www.w3.org/2000/svg" xmlns:xlink="http://www.w3.org/1999/xlink" x="0px" y="0px"
	 width="64px" height="64px" viewBox="0 0 64 64" enable-background="new 0 0 64 64" xml:space="preserve">
<g id="Rectangle_35">
	<g>
		<rect x="7" y="1" fill="#EDF2F8" width="46" height="62"/>
	</g>
</g>
<g id="Rounded_Rectangle_7_5_">
	<g>
		<path fill="#8592A5" d="M22,56h4v-4h-4V56z M22,48h-4v4h4V48z M18,40v4h4v-4H18z M18,32v4h4v-4H18z M38,32h-4v4h4V32z M42,40v-4
			h-4v4H42z M30,56h4v-4h-4V56z M42,48v-4h-4v4H42z M42,56v-4h-4v4H42z M34,52h4v-4h-4V52z M26,48v4h4v-4H26z M30,32h-4v4h4V32z
			 M34,40v-4h-4v4H34z M34,44h4v-4h-4V44z M30,48h4v-4h-4V48z M26,44h-4v4h4V44z M26,36h-4v4h4V36z M30,40h-4v4h4V40z M56,8h-2V2
			c0-1.104-0.896-2-2-2H8C6.896,0,6,0.896,6,2v60c0,1.104,0.896,2,2,2h44c1.104,0,2-0.896,2-2V26h2c1.104,0,2-0.896,2-2V10
			C58,8.896,57.104,8,56,8z M52,8H28c-1.104,0-2,0.896-2,2v14c0,1.104,0.896,2,2,2h24v36H8V2h44V8z"/>
	</g>
</g>
<g enable-background="new    ">
	<path fill="#FFFFFF" d="M33.427,18.065V20.5h-1.69v-7.285h2.57c0.514,0,0.954,0.061,1.322,0.183
		c0.369,0.122,0.672,0.289,0.91,0.503c0.238,0.213,0.414,0.465,0.527,0.755s0.17,0.604,0.17,0.939c0,0.363-0.059,0.697-0.175,1
		c-0.116,0.304-0.295,0.563-0.534,0.78c-0.24,0.217-0.545,0.386-0.913,0.508c-0.368,0.121-0.804,0.183-1.308,0.183H33.427z
		 M33.427,16.79h0.88c0.439,0,0.757-0.105,0.95-0.315s0.29-0.503,0.29-0.88c0-0.166-0.025-0.318-0.075-0.455
		s-0.126-0.254-0.228-0.353c-0.102-0.098-0.23-0.174-0.385-0.228c-0.155-0.053-0.34-0.079-0.553-0.079h-0.88V16.79z"/>
	<path fill="#FFFFFF" d="M39.191,13.225c0.051,0.007,0.096,0.02,0.135,0.038c0.041,0.019,0.078,0.044,0.115,0.077
		s0.078,0.078,0.125,0.135l3.46,4.375c-0.013-0.14-0.022-0.275-0.03-0.407c-0.006-0.132-0.01-0.256-0.01-0.372v-3.855h1.49V20.5
		h-0.88c-0.13,0-0.24-0.02-0.33-0.06s-0.177-0.113-0.26-0.221l-3.435-4.34c0.01,0.127,0.018,0.251,0.024,0.373
		c0.007,0.121,0.01,0.235,0.01,0.342V20.5h-1.489v-7.285h0.89C39.08,13.215,39.142,13.219,39.191,13.225z"/>
	<path fill="#FFFFFF" d="M49.106,19.28c0.233,0,0.44-0.021,0.62-0.061s0.35-0.093,0.51-0.16v-1.104h-0.72
		c-0.106,0-0.19-0.028-0.25-0.085s-0.09-0.128-0.09-0.215v-0.931h2.59V19.8c-0.187,0.137-0.381,0.255-0.583,0.353
		c-0.201,0.099-0.416,0.18-0.645,0.242c-0.229,0.063-0.472,0.11-0.73,0.141c-0.258,0.03-0.535,0.045-0.832,0.045
		c-0.533,0-1.027-0.094-1.48-0.282s-0.846-0.448-1.177-0.78c-0.332-0.332-0.592-0.725-0.78-1.18s-0.282-0.949-0.282-1.482
		c0-0.544,0.09-1.043,0.271-1.498c0.18-0.455,0.438-0.848,0.771-1.178c0.336-0.33,0.74-0.586,1.215-0.77
		c0.476-0.184,1.006-0.275,1.593-0.275c0.304,0,0.589,0.025,0.854,0.075c0.268,0.05,0.514,0.118,0.738,0.205s0.431,0.19,0.617,0.31
		c0.188,0.12,0.354,0.25,0.5,0.391l-0.49,0.745c-0.047,0.069-0.102,0.125-0.167,0.165s-0.136,0.06-0.212,0.06
		c-0.101,0-0.204-0.033-0.311-0.1c-0.133-0.08-0.26-0.149-0.377-0.208c-0.119-0.059-0.24-0.105-0.363-0.143
		c-0.123-0.036-0.254-0.063-0.39-0.08c-0.137-0.017-0.29-0.024-0.46-0.024c-0.316,0-0.602,0.056-0.855,0.167
		c-0.253,0.112-0.469,0.27-0.647,0.473s-0.315,0.447-0.412,0.732s-0.146,0.603-0.146,0.953c0,0.387,0.054,0.729,0.16,1.029
		c0.107,0.3,0.254,0.554,0.443,0.76c0.188,0.207,0.411,0.364,0.67,0.473C48.518,19.226,48.8,19.28,49.106,19.28z"/>
</g>
</svg>
