<?xml version="1.0" encoding="utf-8"?>
<!-- Generator: Adobe Illustrator 16.0.0, SVG Export Plug-In . SVG Version: 6.00 Build 0)  -->
<!DOCTYPE svg PUBLIC "-//W3C//DTD SVG 1.1//EN" "http://www.w3.org/Graphics/SVG/1.1/DTD/svg11.dtd">
<svg version="1.1" id="Layer_1" xmlns="http://www.w3.org/2000/svg" xmlns:xlink="http://www.w3.org/1999/xlink" x="0px" y="0px"
	 width="64px" height="64px" viewBox="0 0 64 64" enable-background="new 0 0 64 64" xml:space="preserve">
<g id="Rectangle_30">
	<g>
		<rect x="7" y="1" fill="#EDF2F8" width="46" height="62"/>
	</g>
</g>
<g id="Rounded_Rectangle_7_9_">
	<g>
		<path fill="#8592A5" d="M16.127,49.208C15.462,49.533,15,50.21,15,51c0,1.104,0.896,2,2,2s2-0.896,2-2
			c0-0.688-0.347-1.291-0.873-1.65c0.733-5.311,4.933-9.502,10.244-10.227C28.731,39.646,29.317,40,30,40s1.269-0.354,1.629-0.877
			c5.313,0.725,9.512,4.916,10.244,10.227C41.348,49.709,41,50.313,41,51c0,1.104,0.896,2,2,2s2-0.896,2-2
			c0-0.79-0.462-1.467-1.127-1.792c-0.557-4.336-3.092-8.051-6.672-10.208h4.076c0.347,0.596,0.984,1,1.723,1c1.104,0,2-0.896,2-2
			s-0.896-2-2-2c-0.738,0-1.376,0.404-1.723,1h-9.555c-0.347-0.596-0.984-1-1.723-1c-0.739,0-1.376,0.404-1.723,1h-9.555
			c-0.347-0.596-0.984-1-1.723-1c-1.104,0-2,0.896-2,2s0.896,2,2,2c0.738,0,1.376-0.404,1.723-1h4.076
			C19.219,41.157,16.683,44.872,16.127,49.208z M56,8h-2V2c0-1.104-0.896-2-2-2H8C6.896,0,6,0.896,6,2v60c0,1.104,0.896,2,2,2h44
			c1.104,0,2-0.896,2-2V26h2c1.104,0,2-0.896,2-2V10C58,8.896,57.104,8,56,8z M52,8H28c-1.104,0-2,0.896-2,2v14c0,1.104,0.896,2,2,2
			h24v36H8V2h44V8z"/>
	</g>
</g>
<g enable-background="new    ">
	<path fill="#FFFFFF" d="M34.347,18.065V20.5h-1.69v-7.285h2.57c0.514,0,0.954,0.061,1.322,0.183
		c0.369,0.122,0.672,0.289,0.91,0.503c0.238,0.213,0.414,0.465,0.527,0.755s0.17,0.604,0.17,0.939c0,0.363-0.059,0.697-0.175,1
		c-0.116,0.304-0.295,0.563-0.534,0.78c-0.24,0.217-0.545,0.386-0.913,0.508c-0.368,0.121-0.804,0.183-1.308,0.183H34.347z
		 M34.347,16.79h0.88c0.439,0,0.757-0.105,0.95-0.315s0.29-0.503,0.29-0.88c0-0.166-0.025-0.318-0.075-0.455
		s-0.126-0.254-0.228-0.353c-0.102-0.098-0.23-0.174-0.385-0.228c-0.155-0.053-0.34-0.079-0.553-0.079h-0.88V16.79z"/>
	<path fill="#FFFFFF" d="M43.097,14.695c-0.05,0.08-0.103,0.14-0.157,0.18c-0.056,0.04-0.127,0.06-0.213,0.06
		c-0.076,0-0.159-0.023-0.248-0.072c-0.088-0.048-0.188-0.103-0.299-0.162c-0.112-0.061-0.24-0.114-0.383-0.163
		c-0.144-0.048-0.307-0.072-0.49-0.072c-0.316,0-0.553,0.067-0.707,0.203c-0.156,0.135-0.232,0.317-0.232,0.547
		c0,0.146,0.046,0.269,0.139,0.365c0.094,0.097,0.217,0.18,0.368,0.25s0.325,0.134,0.521,0.192c0.194,0.059,0.394,0.123,0.598,0.195
		c0.203,0.071,0.402,0.155,0.597,0.252c0.195,0.097,0.368,0.221,0.521,0.37c0.151,0.15,0.273,0.333,0.367,0.548
		s0.141,0.474,0.141,0.777c0,0.337-0.059,0.651-0.176,0.945c-0.117,0.293-0.285,0.549-0.508,0.768
		c-0.221,0.218-0.494,0.39-0.819,0.515s-0.694,0.188-1.108,0.188c-0.227,0-0.457-0.023-0.691-0.07
		c-0.235-0.047-0.463-0.112-0.684-0.197c-0.219-0.085-0.426-0.186-0.619-0.303c-0.193-0.116-0.361-0.246-0.506-0.39l0.5-0.79
		c0.037-0.061,0.089-0.108,0.156-0.146c0.066-0.036,0.138-0.055,0.215-0.055c0.1,0,0.2,0.032,0.303,0.095
		c0.102,0.063,0.216,0.134,0.344,0.21c0.129,0.077,0.276,0.147,0.443,0.21c0.166,0.063,0.363,0.096,0.59,0.096
		c0.307,0,0.545-0.067,0.715-0.203c0.17-0.135,0.255-0.349,0.255-0.643c0-0.17-0.046-0.308-0.14-0.414
		c-0.094-0.107-0.216-0.195-0.367-0.266c-0.152-0.07-0.324-0.132-0.518-0.185c-0.193-0.054-0.393-0.112-0.596-0.178
		s-0.401-0.146-0.595-0.24s-0.366-0.22-0.518-0.375s-0.274-0.348-0.367-0.58c-0.094-0.231-0.14-0.518-0.14-0.857
		c0-0.273,0.055-0.54,0.164-0.8c0.11-0.26,0.271-0.491,0.485-0.695c0.214-0.203,0.476-0.365,0.785-0.487
		c0.31-0.121,0.665-0.183,1.065-0.183c0.223,0,0.44,0.018,0.652,0.053c0.211,0.035,0.412,0.087,0.602,0.155
		c0.19,0.068,0.368,0.149,0.533,0.245c0.165,0.095,0.313,0.202,0.442,0.322L43.097,14.695z"/>
	<path fill="#FFFFFF" d="M51.066,16.855c0,0.526-0.091,1.012-0.272,1.457s-0.438,0.83-0.768,1.155s-0.728,0.578-1.192,0.76
		s-0.98,0.272-1.547,0.272h-2.83v-7.285h2.83c0.566,0,1.082,0.092,1.547,0.275s0.862,0.437,1.192,0.76s0.586,0.707,0.768,1.152
		S51.066,16.332,51.066,16.855z M49.336,16.855c0-0.36-0.047-0.686-0.14-0.976s-0.228-0.536-0.402-0.737
		c-0.175-0.202-0.39-0.356-0.643-0.465s-0.542-0.163-0.864-0.163h-1.131V19.2h1.131c0.322,0,0.611-0.055,0.864-0.163
		c0.253-0.107,0.468-0.263,0.643-0.465c0.175-0.201,0.31-0.447,0.402-0.737S49.336,17.219,49.336,16.855z"/>
</g>
</svg>
