<?xml version="1.0" encoding="utf-8"?>
<!-- Generator: Adobe Illustrator 16.0.0, SVG Export Plug-In . SVG Version: 6.00 Build 0)  -->
<!DOCTYPE svg PUBLIC "-//W3C//DTD SVG 1.1//EN" "http://www.w3.org/Graphics/SVG/1.1/DTD/svg11.dtd">
<svg version="1.1" id="Layer_1" xmlns="http://www.w3.org/2000/svg" xmlns:xlink="http://www.w3.org/1999/xlink" x="0px" y="0px"
	 width="64px" height="64px" viewBox="0 0 64 64" enable-background="new 0 0 64 64" xml:space="preserve">
<g id="Rectangle_13_copy_3">
	<g>
		<path fill="#EDF2F8" d="M20,63h6V45h-6V63z M10,63h6V45h-6V63z M30,63h6V45h-6V63z M40,63h6V45h-6V63z M42,15V1H10v28h46V15H42z
			 M50,63h6V45h-6V63z"/>
	</g>
</g>
<g id="Rectangle_19">
	<g>
		<path fill-rule="evenodd" clip-rule="evenodd" fill="#C2CDDC" d="M57,37c1.104,0,2-0.896,2-2s-0.896-2-2-2s-2,0.896-2,2
			S55.896,37,57,37z M1,41v4h62v-4H1z"/>
	</g>
</g>
<g id="Rectangle_48">
	<g>
		<rect x="1" y="29" fill="#FFFFFF" width="62" height="12"/>
	</g>
</g>
<g id="Ellipse_1">
	<g>
		<path fill-rule="evenodd" clip-rule="evenodd" fill="#8592A5" d="M62,28h-5V15c0,0-0.005-0.009-0.006-0.011
			c-0.009-0.237-0.098-0.474-0.279-0.655L42.666,0.285c-0.179-0.179-0.411-0.267-0.646-0.277C42.014,0.006,42,0,42,0H11
			C9.896,0,9,0.896,9,2v26H2c-1.104,0-2,0.896-2,2v14c0,1.104,0.896,2,2,2h7v18h8V46h2v18h8V46h2v18h8V46h2v18h8V46h2v18h8V46h5
			c1.104,0,2-0.896,2-2V30C64,28.896,63.104,28,62,28z M43,3.381L53.619,14C49.477,14,43,14,43,14S43,7.524,43,3.381z M11,2h30v14
			h14v12H11V2z M15,62h-4V46h4V62z M25,62h-4V46h4V62z M35,62h-4V46h4V62z M45,62h-4V46h4V62z M55,62h-4V46h4V62z M62,44H2v-2h60V44
			z M62,40H2V30h60V40z M5,38h6c0.553,0,1-0.447,1-1s-0.447-1-1-1H5c-0.553,0-1,0.447-1,1S4.447,38,5,38z M57,38
			c1.657,0,3-1.343,3-3s-1.343-3-3-3s-3,1.343-3,3S55.343,38,57,38z M57,34c0.553,0,1,0.447,1,1s-0.447,1-1,1s-1-0.447-1-1
			S56.447,34,57,34z M5,34h6c0.553,0,1-0.447,1-1s-0.447-1-1-1H5c-0.553,0-1,0.447-1,1S4.447,34,5,34z"/>
	</g>
</g>
</svg>
