<?xml version="1.0" encoding="utf-8"?>
<!-- Generator: Adobe Illustrator 16.0.0, SVG Export Plug-In . SVG Version: 6.00 Build 0)  -->
<!DOCTYPE svg PUBLIC "-//W3C//DTD SVG 1.1//EN" "http://www.w3.org/Graphics/SVG/1.1/DTD/svg11.dtd">
<svg version="1.1" id="Layer_1" xmlns="http://www.w3.org/2000/svg" xmlns:xlink="http://www.w3.org/1999/xlink" x="0px" y="0px"
	 width="64px" height="64px" viewBox="0 0 64 64" enable-background="new 0 0 64 64" xml:space="preserve">
<g id="Rounded_Rectangle_9">
	<g>
		<polygon fill="#EDF2F8" points="41,15 41,1 9,1 9,63 55,63 55,15 		"/>
	</g>
</g>
<g id="Rectangle_21">
	<g>
		<rect x="19" y="27" fill="#FFFFFF" width="26" height="18"/>
	</g>
</g>
<g id="Rectangle_20">
	<g>
		<polygon fill="#FFFFFF" points="41,1 41,15 55,15 		"/>
	</g>
</g>
<g id="icon_15_">
	<g>
		<path fill-rule="evenodd" clip-rule="evenodd" fill="#8592A5" d="M55.994,14.989c-0.009-0.237-0.098-0.474-0.279-0.655
			L41.666,0.285c-0.179-0.179-0.411-0.267-0.646-0.277C41.014,0.006,41,0,41,0H10C8.896,0,8,0.896,8,2v60c0,1.104,0.896,2,2,2h44
			c1.104,0,2-0.896,2-2V15C56,15,55.995,14.991,55.994,14.989z M42,3.381L52.619,14C48.477,14,42,14,42,14S42,7.524,42,3.381z
			 M54,62H10V2h30v14h14V62z M18,46h28V26H18V46z M28,28h16v4H28V28z M28,34h16v4H28V34z M28,40h16v4H28V40z M20,28h6v4h-6V28z
			 M20,34h6v4h-6V34z M20,40h6v4h-6V40z"/>
	</g>
</g>
</svg>
