<?xml version="1.0" encoding="utf-8"?>
<!-- Generator: Adobe Illustrator 16.0.0, SVG Export Plug-In . SVG Version: 6.00 Build 0)  -->
<!DOCTYPE svg PUBLIC "-//W3C//DTD SVG 1.1//EN" "http://www.w3.org/Graphics/SVG/1.1/DTD/svg11.dtd">
<svg version="1.1" id="Layer_1" xmlns="http://www.w3.org/2000/svg" xmlns:xlink="http://www.w3.org/1999/xlink" x="0px" y="0px"
	 width="64px" height="64px" viewBox="0 0 64 64" enable-background="new 0 0 64 64" xml:space="preserve">
<g id="Rectangle_39">
	<g>
		<rect x="7" y="1" fill="#EDF2F8" width="46" height="62"/>
	</g>
</g>
<g id="Rectangle_40">
	<g>
		<polygon fill="#FFFFFF" points="25,39 19,39 19,49 25,49 34,54 34,34 		"/>
	</g>
</g>
<g id="icon_2_">
	<g>
		<path fill="#8592A5" d="M38.406,46.174c-0.4,0.287-0.531,0.838-0.286,1.275l0.042,0.074c0.268,0.476,0.869,0.623,1.305,0.313
			c1.747-1.25,2.596-2.605,2.525-4.037c-0.086-1.747-1.52-2.99-2.518-3.648c-0.472-0.312-1.099-0.121-1.33,0.408l-0.037,0.086
			c-0.188,0.432-0.045,0.938,0.338,1.194c0.709,0.474,1.592,1.247,1.63,2.063C40.107,44.58,39.521,45.371,38.406,46.174z M56,8h-2V2
			c0-1.104-0.896-2-2-2H8C6.896,0,6,0.896,6,2v60c0,1.104,0.896,2,2,2h44c1.104,0,2-0.896,2-2V26h2c1.104,0,2-0.896,2-2V10
			C58,8.896,57.104,8,56,8z M52,8H28c-1.104,0-2,0.896-2,2v14c0,1.104,0.896,2,2,2h24v36H8V2h44V8z M19,50h5.765l8.75,4.883
			c0.023,0.014,0.051,0.014,0.074,0.024s0.049,0.016,0.073,0.024c0.45,0.172,0.97,0.016,1.22-0.414
			c0.096-0.164,0.12-0.341,0.117-0.517c0,0,0-0.001,0-0.002V34.081c0.021-0.201-0.002-0.409-0.111-0.599
			c-0.25-0.431-0.77-0.586-1.223-0.416c-0.025,0.01-0.052,0.016-0.077,0.025c-0.022,0.012-0.049,0.012-0.071,0.024L24.754,38H19
			c-0.553,0-1,0.447-1,1v10C18,49.553,18.447,50,19,50z M26,39.593l7-3.899v16.617l-7-3.904V39.593z M20,40h4v8h-4V40z"/>
	</g>
</g>
<g enable-background="new    ">
	<path fill="#FFFFFF" d="M28.991,13.382h1.42c0.146,0,0.269,0.033,0.367,0.101c0.098,0.066,0.163,0.154,0.192,0.265l1,3.8
		c0.034,0.123,0.067,0.255,0.1,0.396c0.033,0.14,0.059,0.286,0.075,0.439c0.033-0.156,0.07-0.304,0.11-0.442s0.078-0.27,0.115-0.393
		l1.179-3.8c0.031-0.094,0.095-0.178,0.193-0.253c0.098-0.074,0.217-0.112,0.357-0.112h0.5c0.146,0,0.268,0.032,0.362,0.098
		s0.161,0.154,0.198,0.268l1.17,3.8c0.036,0.117,0.074,0.241,0.114,0.373c0.04,0.131,0.075,0.272,0.104,0.422
		c0.027-0.146,0.055-0.286,0.083-0.42c0.028-0.133,0.058-0.258,0.087-0.375l1-3.8c0.027-0.097,0.091-0.182,0.191-0.255
		c0.1-0.073,0.219-0.11,0.359-0.11h1.33l-2.25,7.285h-1.53l-1.37-4.515c-0.023-0.07-0.047-0.147-0.072-0.23
		s-0.049-0.172-0.072-0.265c-0.023,0.093-0.048,0.182-0.072,0.265c-0.025,0.083-0.05,0.16-0.072,0.23l-1.391,4.515h-1.53
		L28.991,13.382z"/>
	<path fill="#FFFFFF" d="M46.332,20.667h-1.311c-0.146,0-0.268-0.034-0.362-0.103s-0.161-0.155-0.198-0.263l-0.43-1.27h-2.77
		l-0.43,1.27c-0.033,0.094-0.099,0.178-0.195,0.253s-0.215,0.112-0.355,0.112h-1.32l2.82-7.285h1.73L46.332,20.667z M41.652,17.882
		h1.989l-0.67-1.995c-0.044-0.126-0.095-0.275-0.152-0.447c-0.059-0.172-0.116-0.357-0.173-0.558
		c-0.053,0.203-0.108,0.392-0.165,0.565c-0.057,0.173-0.11,0.323-0.159,0.45L41.652,17.882z"/>
	<path fill="#FFFFFF" d="M45.322,13.382h1.359c0.146,0,0.267,0.033,0.36,0.101c0.093,0.066,0.159,0.154,0.2,0.265l1.41,3.9
		c0.063,0.17,0.127,0.354,0.191,0.555c0.065,0.2,0.127,0.41,0.184,0.63c0.046-0.22,0.1-0.43,0.162-0.63
		c0.062-0.2,0.123-0.385,0.182-0.555l1.4-3.9c0.033-0.094,0.099-0.178,0.195-0.253c0.097-0.074,0.215-0.112,0.355-0.112h1.369
		l-2.92,7.285h-1.529L45.322,13.382z"/>
</g>
</svg>
