<?xml version="1.0" encoding="utf-8"?>
<!-- Generator: Adobe Illustrator 16.0.0, SVG Export Plug-In . SVG Version: 6.00 Build 0)  -->
<!DOCTYPE svg PUBLIC "-//W3C//DTD SVG 1.1//EN" "http://www.w3.org/Graphics/SVG/1.1/DTD/svg11.dtd">
<svg version="1.1" id="Layer_1" xmlns="http://www.w3.org/2000/svg" xmlns:xlink="http://www.w3.org/1999/xlink" x="0px" y="0px"
	 width="64px" height="64px" viewBox="0 0 64 64" enable-background="new 0 0 64 64" xml:space="preserve">
<g id="Rectangle_27">
	<g>
		<rect x="7" y="1" fill="#EDF2F8" width="46" height="62"/>
	</g>
</g>
<g id="Rectangle_15">
	<g>
		<path fill="#FFFFFF" d="M16,55h4V45h-4V55z M32,41v14h4V41H32z"/>
	</g>
</g>
<g id="Rectangle_28">
	<g>
		<path fill="#C2CDDC" d="M24,55h4V33h-4V55z M40,45v10h4V45H40z"/>
	</g>
</g>
<g id="Rounded_Rectangle_7_10_">
	<g>
		<path fill="#8592A5" d="M41,56h2c1.104,0,2-0.896,2-2v-8c0-1.104-0.896-2-2-2h-2c-1.104,0-2,0.896-2,2v8
			C39,55.104,39.896,56,41,56z M41,46h2v8h-2V46z M17,56h2c1.104,0,2-0.896,2-2v-8c0-1.104-0.896-2-2-2h-2c-1.104,0-2,0.896-2,2v8
			C15,55.104,15.896,56,17,56z M17,46h2v8h-2V46z M25,56h2c1.104,0,2-0.896,2-2V34c0-1.104-0.896-2-2-2h-2c-1.104,0-2,0.896-2,2v20
			C23,55.104,23.896,56,25,56z M25,34h2v20h-2V34z M33,56h2c1.104,0,2-0.896,2-2V42c0-1.104-0.896-2-2-2h-2c-1.104,0-2,0.896-2,2v12
			C31,55.104,31.896,56,33,56z M33,42h2v12h-2V42z M56,8h-2V2c0-1.104-0.896-2-2-2H8C6.896,0,6,0.896,6,2v60c0,1.104,0.896,2,2,2h44
			c1.104,0,2-0.896,2-2V26h2c1.104,0,2-0.896,2-2V10C58,8.896,57.104,8,56,8z M52,8H28c-1.104,0-2,0.896-2,2v14c0,1.104,0.896,2,2,2
			h24v36H8V2h44V8z"/>
	</g>
</g>
<g enable-background="new    ">
	<path fill="#FFFFFF" d="M35.197,16.755l-2.256-3.54h1.69c0.11,0,0.19,0.015,0.242,0.043s0.098,0.075,0.138,0.143l1.45,2.455
		c0.017-0.044,0.036-0.086,0.058-0.125c0.021-0.04,0.045-0.082,0.072-0.125l1.27-2.181c0.084-0.14,0.197-0.21,0.34-0.21h1.621
		l-2.285,3.465l2.334,3.82h-1.689c-0.109,0-0.199-0.026-0.268-0.08c-0.068-0.053-0.122-0.116-0.162-0.189l-1.46-2.551
		c-0.026,0.073-0.058,0.137-0.091,0.19l-1.359,2.36c-0.04,0.069-0.094,0.132-0.16,0.188c-0.066,0.055-0.15,0.082-0.25,0.082h-1.58
		L35.197,16.755z"/>
	<path fill="#FFFFFF" d="M42.212,19.15h2.7v1.35h-4.391v-7.285h1.69V19.15z"/>
	<path fill="#FFFFFF" d="M49.771,14.695c-0.05,0.08-0.102,0.14-0.157,0.18s-0.126,0.06-0.212,0.06c-0.077,0-0.16-0.023-0.248-0.072
		c-0.088-0.048-0.188-0.103-0.3-0.162c-0.112-0.061-0.239-0.114-0.383-0.163c-0.144-0.048-0.307-0.072-0.489-0.072
		c-0.317,0-0.553,0.067-0.708,0.203c-0.155,0.135-0.232,0.317-0.232,0.547c0,0.146,0.046,0.269,0.14,0.365s0.216,0.18,0.367,0.25
		c0.152,0.07,0.326,0.134,0.521,0.192s0.394,0.123,0.598,0.195c0.203,0.071,0.402,0.155,0.597,0.252
		c0.195,0.097,0.369,0.221,0.521,0.37c0.151,0.15,0.274,0.333,0.368,0.548c0.093,0.215,0.14,0.474,0.14,0.777
		c0,0.337-0.059,0.651-0.175,0.945c-0.117,0.293-0.286,0.549-0.508,0.768c-0.222,0.218-0.495,0.39-0.82,0.515
		c-0.324,0.125-0.693,0.188-1.107,0.188c-0.227,0-0.457-0.023-0.692-0.07s-0.462-0.112-0.683-0.197
		c-0.22-0.085-0.427-0.186-0.619-0.303c-0.193-0.116-0.362-0.246-0.506-0.39l0.5-0.79c0.037-0.061,0.088-0.108,0.155-0.146
		c0.066-0.036,0.138-0.055,0.215-0.055c0.101,0,0.2,0.032,0.303,0.095c0.102,0.063,0.216,0.134,0.345,0.21
		c0.129,0.077,0.275,0.147,0.442,0.21c0.167,0.063,0.363,0.096,0.591,0.096c0.307,0,0.545-0.067,0.715-0.203
		c0.17-0.135,0.254-0.349,0.254-0.643c0-0.17-0.046-0.308-0.139-0.414c-0.094-0.107-0.217-0.195-0.368-0.266
		s-0.324-0.132-0.518-0.185c-0.193-0.054-0.392-0.112-0.595-0.178s-0.402-0.146-0.596-0.24s-0.365-0.22-0.518-0.375
		c-0.151-0.155-0.273-0.348-0.367-0.58c-0.094-0.231-0.14-0.518-0.14-0.857c0-0.273,0.055-0.54,0.165-0.8
		c0.109-0.26,0.271-0.491,0.484-0.695c0.214-0.203,0.476-0.365,0.785-0.487c0.311-0.121,0.666-0.183,1.065-0.183
		c0.224,0,0.44,0.018,0.652,0.053s0.413,0.087,0.603,0.155s0.367,0.149,0.533,0.245c0.164,0.095,0.313,0.202,0.441,0.322
		L49.771,14.695z"/>
</g>
</svg>
