<?xml version="1.0" encoding="utf-8"?>
<!-- Generator: Adobe Illustrator 16.0.0, SVG Export Plug-In . SVG Version: 6.00 Build 0)  -->
<!DOCTYPE svg PUBLIC "-//W3C//DTD SVG 1.1//EN" "http://www.w3.org/Graphics/SVG/1.1/DTD/svg11.dtd">
<svg version="1.1" id="Layer_1" xmlns="http://www.w3.org/2000/svg" xmlns:xlink="http://www.w3.org/1999/xlink" x="0px" y="0px"
	 width="64px" height="64px" viewBox="0 0 64 64" enable-background="new 0 0 64 64" xml:space="preserve">
<g id="Rectangle_22_1_">
	<g>
		<polygon fill="#EDF2F8" points="41,15 41,1 9,1 9,63 55,63 55,15 		"/>
	</g>
</g>
<g id="Rectangle_23">
	<g>
		<polygon fill="#FFFFFF" points="41,1 41,15 55,15 		"/>
	</g>
</g>
<g id="icon_8_">
	<g>
		<path fill-rule="evenodd" clip-rule="evenodd" fill="#8592A5" d="M55.994,14.989c-0.009-0.237-0.098-0.474-0.279-0.655
			L41.666,0.285c-0.179-0.179-0.411-0.267-0.646-0.277C41.014,0.006,41,0,41,0H10C8.896,0,8,0.896,8,2v60c0,1.104,0.896,2,2,2h44
			c1.104,0,2-0.896,2-2V15C56,15,55.995,14.991,55.994,14.989z M42,3.381L52.619,14C48.477,14,42,14,42,14S42,7.524,42,3.381z
			 M54,62H33V38h1c1.104,0,2-0.896,2-2v-8c0-1.104-0.896-2-2-2v-2h-2v2h-2c-1.104,0-2,0.896-2,2v8c0,1.104,0.896,2,2,2h1v24H10V2h20
			v2h2V2h8v14h14V62z M34,32v4h-4v-4H34z M30,30v-2h4v2H30z M34,6V4h-2v2H34z M30,8h2V6h-2V8z M34,10V8h-2v2H34z M30,12h2v-2h-2V12z
			 M34,14v-2h-2v2H34z M30,16h2v-2h-2V16z M34,18v-2h-2v2H34z M30,20h2v-2h-2V20z M34,22v-2h-2v2H34z M30,22v2h2v-2H30z"/>
	</g>
</g>
</svg>
