<svg height="511pt" viewBox="-82 1 511 511.99981" width="511pt" xmlns="http://www.w3.org/2000/svg"><path d="m312.332031 293.792969c11.453125 3.789062 23.578125 3.167969 34.816407-1.367188-26.414063-21.203125-44.398438-55.558593-48.238282-92.140625h-249.863281c-3.839844 36.582032-21.824219 70.9375-48.238281 92.140625 11.242187 4.535157 23.367187 5.15625 34.816406 1.367188-5.941406 20.910156-19.433594 40.300781-35.125 53.0625 16.425781 4.632812 34.273438 2.527343 48.945312-7.082031 5.765626 35.1875 7.753907 71.199218 6.847657 106.980468h235.371093c-.902343-35.78125 1.085938-71.792968 6.851563-106.980468 14.671875 9.609374 32.519531 11.714843 48.945313 7.082031-15.695313-12.761719-29.183594-32.148438-35.128907-53.0625zm0 0" fill="#c5d3d6"/><path d="m304.539062 436.558594v71.511718c0 2.167969-1.761718 3.929688-3.929687 3.929688h-253.261719c-2.167968 0-3.929687-1.761719-3.929687-3.929688v-71.511718c0-20.738282 12.871093-39.296875 32.300781-46.570313l98.261719-36.769531 98.257812 36.769531c19.429688 7.273438 32.300781 25.832031 32.300781 46.570313zm0 0" fill="#6e7093"/><g fill="#4e5173"><path d="m272.242188 389.992188-98.261719-36.769532v8.257813l76.1875 28.511719c19.425781 7.269531 32.300781 25.832031 32.300781 46.574218v71.503906c0 2.171876-1.761719 3.929688-3.929688 3.929688h22.074219c2.167969 0 3.925781-1.757812 3.925781-3.929688v-71.503906c0-20.742187-12.871093-39.304687-32.296874-46.574218zm0 0"/><path d="m263.96875 470.660156v41.339844h-15v-41.339844c0-4.140625 3.359375-7.5 7.5-7.5s7.5 3.359375 7.5 7.5zm0 0"/><path d="m98.988281 470.660156v41.339844h-15v-41.339844c0-4.140625 3.359375-7.5 7.5-7.5s7.5 3.359375 7.5 7.5zm0 0"/></g><path d="m278.394531 234.613281c0-64.96875-46.75-117.632812-104.414062-117.632812-57.667969 0-104.414063 52.664062-104.414063 117.632812 0 64.964844 46.746094 117.632813 104.414063 117.632813 57.664062 0 104.414062-52.667969 104.414062-117.632813zm0 0" fill="#f9c295"/><path d="m222.417969 130.386719c22.777343 21.578125 37.257812 53.914062 37.257812 90.066406 0 64.964844-46.75 117.632813-104.414062 117.632813-17.484375 0-33.960938-4.847657-48.441407-13.40625 18.15625 17.199218 41.582032 27.566406 67.160157 27.566406 57.664062 0 104.414062-52.667969 104.414062-117.632813 0-45.269531-22.703125-84.558593-55.976562-104.226562zm0 0" fill="#e59f6a"/><path d="m287.972656 303.714844c-5.851562 4.046875-30.773437 4.554687-51.871094-13.382813-21.09375-17.9375-42.710937-31.179687-62.125-15.070312-19.414062-16.109375-41.027343-2.867188-62.121093 15.070312-21.097657 17.9375-46.019531 17.429688-51.875 13.382813-.550781 7.496094 10.761719 34.019531 45.882812 41.355468-1.003906 3.875-1.578125 7.867188-1.675781 11.835938-.367188 14.390625 4.585938 28.464844 11.339844 41.179688 6.75 12.71875 15.304687 24.375 22.902344 36.605468 2.863281 4.613282 5.65625 9.5 6.191406 14.902344.539062 5.398438-1.789063 11.453125-6.75 13.652344-4.632813 2.054687-11.078125-1.046875-11.640625-5.878906.308593 13.351562 9.359375 25.886718 21.703125 31.074218 12.671875 5.324219 27.546875 3.839844 39.976562-2.019531 12.433594-5.855469 22.617188-15.726563 30.8125-26.757813 23.847656-32.109374 31.023438-75.636718 20.035156-113.96875 37.742188-6.300781 49.785157-34.25 49.214844-41.980468zm0 0" fill="#e6eff5"/><path d="m287.972656 303.714844c-5.851562 4.046875-30.773437 4.554687-51.871094-13.382813-18.859374-16.039062-38.132812-28.300781-55.882812-19.210937 14.167969-3.109375 27.246094 10.070312 39.660156 26.289062 15.289063 19.972656 36.023438 22.039063 41.378906 18.625-.480468 7.726563-13.914062 34.226563-45.996093 36.59375 4.390625 39.167969-6.921875 81.625-30.660157 111.035156-8.15625 10.105469-17.820312 18.851563-28.851562 23.382813-2.023438.832031-4.097656 1.503906-6.195312 2.015625 12.304687 4.554688 26.449218 2.972656 38.355468-2.640625 12.433594-5.855469 22.621094-15.722656 30.8125-26.757813 23.847656-32.109374 31.023438-75.636718 20.035156-113.964843 37.742188-6.304688 49.785157-34.253907 49.214844-41.984375zm0 0" fill="#b1bfc4"/><path d="m291.039062 163.972656-57.558593-119.464844c-3.257813-6.769531-8.988281-12.03125-16.007813-14.707031l-70.59375-26.925781c-20.1875-7.703125-42.96875.515625-53.59375 19.332031l-35.171875 62.289063c-2.761719 4.894531-8.628906 7.101562-13.933593 5.25-11.8125-4.121094-31.453126-11.394532-37.136719-16.078125-7.960938-6.554688-2.410157 60.023437 56.226562 77.121093l-6.351562 13.183594c-26.210938.019532-47.453125 21.273438-47.453125 47.488282v7.382812c0 5.011719 4.0625 9.070312 9.070312 9.070312h310.886719c5.011719 0 9.070313-4.058593 9.070313-9.070312v-7.382812c0-26.214844-21.242188-47.46875-47.453126-47.488282zm0 0" fill="#b78358"/><path d="m291.039062 163.972656-57.558593-119.464844c-3.257813-6.769531-8.988281-12.03125-16.007813-14.707031l-70.59375-26.925781c-9.902344-3.777344-20.429687-3.71875-29.84375-.460938.433594.152344.863282.296876 1.289063.460938l70.597656 26.925781c7.019531 2.675781 12.746094 7.9375 16.007813 14.707031l57.558593 119.464844c26.210938.019532 47.453125 21.273438 47.453125 47.488282v7.382812c0 5.011719-4.0625 9.070312-9.074218 9.070312h28.554687c5.011719 0 9.070313-4.058593 9.070313-9.070312v-7.382812c0-26.214844-21.242188-47.46875-47.453126-47.488282zm0 0" fill="#935d38"/><path d="m90.023438 78.011719c-3.730469-1.796875-8.214844-.230469-10.011719 3.503906l-30.746094 63.816406c4.292969 2.136719 8.945313 3.984375 14.003906 5.460938l30.253907-62.769531c1.800781-3.730469.230468-8.210938-3.5-10.011719zm0 0" fill="#935d38"/><path d="m173.980469 163.972656h117.058593l-7.226562-15h-109.832031c-4.144531 0-7.5 3.359375-7.5 7.5s3.355469 7.5 7.5 7.5zm0 0" fill="#935d38"/><path d="m227.644531 255.167969c-4.140625 0-7.5-3.359375-7.5-7.5v-1c0-4.144531 3.359375-7.5 7.5-7.5 4.144531 0 7.5 3.355469 7.5 7.5v1c0 4.140625-3.355469 7.5-7.5 7.5zm0 0" fill="#363b51"/><path d="m120.3125 255.167969c-4.144531 0-7.5-3.359375-7.5-7.5v-1c0-4.144531 3.355469-7.5 7.5-7.5 4.140625 0 7.5 3.355469 7.5 7.5v1c0 4.140625-3.359375 7.5-7.5 7.5zm0 0" fill="#363b51"/></svg>